# Blender 4.0.2
# www.blender.org
mtllib pickUpHeart.mtl
o Sphere.001
v 0.086987 -0.919135 0.000116
v 0.253653 -0.831280 0.000117
v 0.616053 -0.500000 0.000120
v 0.911384 -0.139531 0.000122
v 1.039144 0.090616 0.000123
v 1.131948 0.516774 0.000124
v 1.072863 0.757955 0.000123
v 0.706838 1.123980 0.000121
v 0.465658 1.128115 0.000119
v -0.001902 -0.967071 0.000115
v -0.001902 1.006025 0.000115
v -0.001901 -0.936978 -0.012120
v -0.001898 -0.615041 -0.434086
v -0.001898 -0.500000 -0.502121
v -0.001897 -0.139531 -0.594207
v -0.001897 0.090616 -0.602977
v -0.001897 0.516774 -0.563315
v -0.001898 0.757955 -0.468461
v -0.001898 0.928481 -0.424282
v -0.001900 1.007608 -0.211264
v -0.001901 1.016464 -0.069667
v -0.001901 -0.950213 -0.069232
v 0.213478 -0.468720 -0.515073
v 0.288929 -0.139531 -0.637274
v 0.329315 0.090616 -0.641690
v 0.380170 0.516774 -0.617836
v 0.386980 0.757955 -0.545184
v 0.361956 0.965062 -0.437637
v 0.414882 1.070047 -0.258264
v 0.208038 1.070733 -0.149533
v -0.001901 -0.918470 -0.108050
v -0.001900 -0.872939 -0.187185
v -0.001899 -0.776660 -0.287440
v 0.422157 -0.446327 -0.478441
v 0.634768 -0.139531 -0.578517
v 0.767611 0.112387 -0.598948
v 0.839453 0.544237 -0.618448
v 0.819216 0.757955 -0.572377
v 0.706845 0.965062 -0.460004
v 0.560399 1.123980 -0.099466
v 0.399076 1.112240 -0.106554
v 0.049778 -0.913021 -0.085809
v 0.171886 -0.834241 -0.157022
v 0.365213 -0.710503 -0.220393
v 0.542158 -0.472929 -0.277422
v 0.802901 -0.149882 -0.328385
v 0.963031 0.090616 -0.339187
v 1.058428 0.516774 -0.329650
v 1.006949 0.757955 -0.291420
v 0.860128 0.965062 -0.230603
v 0.668787 1.123980 -0.027070
v 0.449998 1.125044 -0.038974
v 0.400846 -0.729942 0.000118
v 0.913945 0.965062 0.000122
v -0.086987 -0.919135 0.000117
v -0.253653 -0.831280 0.000119
v -0.616053 -0.500000 0.000125
v -0.911384 -0.139531 0.000130
v -1.039144 0.090616 0.000132
v -1.131948 0.516774 0.000133
v -1.072863 0.757955 0.000132
v -0.706838 1.123980 0.000126
v -0.465658 1.128115 0.000123
v 0.001902 -0.967071 0.000115
v 0.001902 1.006025 0.000115
v 0.001901 -0.936978 -0.012120
v 0.001895 -0.615041 -0.434086
v 0.001894 -0.500000 -0.502121
v 0.001892 -0.139531 -0.594207
v 0.001892 0.090616 -0.602977
v 0.001893 0.516774 -0.563315
v 0.001894 0.757955 -0.468461
v 0.001895 0.928481 -0.424282
v 0.001898 1.007608 -0.211264
v 0.001900 1.016464 -0.069667
v 0.001900 -0.950213 -0.069232
v -0.213483 -0.468720 -0.515071
v -0.288935 -0.139531 -0.637271
v -0.329321 0.090616 -0.641687
v -0.380176 0.516774 -0.617833
v -0.386985 0.757955 -0.545181
v -0.361960 0.965062 -0.437633
v -0.414884 1.070047 -0.258260
v -0.208039 1.070733 -0.149532
v 0.001900 -0.918470 -0.108050
v 0.001899 -0.872939 -0.187185
v 0.001897 -0.776660 -0.287440
v -0.422161 -0.446327 -0.478438
v -0.634773 -0.139531 -0.578511
v -0.767616 0.112387 -0.598941
v -0.839458 0.544237 -0.618441
v -0.819221 0.757955 -0.572370
v -0.706849 0.965062 -0.459998
v -0.560400 1.123980 -0.099462
v -0.399077 1.112240 -0.106550
v -0.049779 -0.913021 -0.085809
v -0.171887 -0.834241 -0.157021
v -0.365214 -0.710503 -0.220390
v -0.542161 -0.472929 -0.277418
v -0.802904 -0.149882 -0.328378
v -0.963034 0.090616 -0.339179
v -1.058431 0.516774 -0.329641
v -1.006951 0.757955 -0.291411
v -0.860130 0.965062 -0.230596
v -0.668787 1.123980 -0.027064
v -0.449998 1.125044 -0.038970
v -0.400846 -0.729942 0.000122
v -0.913945 0.965062 0.000130
v -0.086987 -0.919135 -0.000116
v -0.253653 -0.831280 -0.000117
v -0.616053 -0.500000 -0.000120
v -0.911384 -0.139531 -0.000122
v -1.039144 0.090616 -0.000123
v -1.131948 0.516774 -0.000124
v -1.072863 0.757955 -0.000123
v -0.706838 1.123980 -0.000121
v -0.465658 1.128115 -0.000119
v 0.001902 -0.967071 -0.000115
v 0.001902 1.006025 -0.000115
v 0.001901 -0.936978 0.012120
v 0.001898 -0.615041 0.434086
v 0.001898 -0.500000 0.502121
v 0.001897 -0.139531 0.594207
v 0.001897 0.090616 0.602977
v 0.001897 0.516774 0.563315
v 0.001898 0.757955 0.468461
v 0.001898 0.928481 0.424282
v 0.001900 1.007608 0.211264
v 0.001901 1.016464 0.069667
v 0.001901 -0.950213 0.069232
v -0.213478 -0.468720 0.515073
v -0.288929 -0.139531 0.637274
v -0.329315 0.090616 0.641690
v -0.380170 0.516774 0.617836
v -0.386980 0.757955 0.545184
v -0.361956 0.965062 0.437637
v -0.414882 1.070047 0.258264
v -0.208038 1.070733 0.149533
v 0.001901 -0.918470 0.108050
v 0.001900 -0.872939 0.187185
v 0.001899 -0.776660 0.287440
v -0.422157 -0.446327 0.478441
v -0.634768 -0.139531 0.578517
v -0.767611 0.112387 0.598948
v -0.839453 0.544237 0.618448
v -0.819216 0.757955 0.572377
v -0.706845 0.965062 0.460004
v -0.560399 1.123980 0.099466
v -0.399076 1.112240 0.106554
v -0.049778 -0.913021 0.085809
v -0.171886 -0.834241 0.157022
v -0.365213 -0.710503 0.220393
v -0.542158 -0.472929 0.277422
v -0.802901 -0.149882 0.328385
v -0.963031 0.090616 0.339187
v -1.058428 0.516774 0.329650
v -1.006949 0.757955 0.291420
v -0.860128 0.965062 0.230603
v -0.668787 1.123980 0.027070
v -0.449998 1.125044 0.038974
v -0.400846 -0.729942 -0.000118
v -0.913945 0.965062 -0.000122
v 0.086987 -0.919135 -0.000117
v 0.253653 -0.831280 -0.000119
v 0.616053 -0.500000 -0.000125
v 0.911384 -0.139531 -0.000130
v 1.039144 0.090616 -0.000132
v 1.131948 0.516774 -0.000133
v 1.072863 0.757955 -0.000132
v 0.706838 1.123980 -0.000126
v 0.465658 1.128115 -0.000123
v -0.001902 -0.967071 -0.000115
v -0.001902 1.006025 -0.000115
v -0.001901 -0.936978 0.012120
v -0.001895 -0.615041 0.434086
v -0.001894 -0.500000 0.502121
v -0.001892 -0.139531 0.594207
v -0.001892 0.090616 0.602977
v -0.001893 0.516774 0.563315
v -0.001894 0.757955 0.468461
v -0.001895 0.928481 0.424282
v -0.001898 1.007608 0.211264
v -0.001900 1.016464 0.069667
v -0.001900 -0.950213 0.069232
v 0.213483 -0.468720 0.515071
v 0.288935 -0.139531 0.637271
v 0.329321 0.090616 0.641687
v 0.380176 0.516774 0.617833
v 0.386985 0.757955 0.545181
v 0.361960 0.965062 0.437633
v 0.414884 1.070047 0.258260
v 0.208039 1.070733 0.149532
v -0.001900 -0.918470 0.108050
v -0.001899 -0.872939 0.187185
v -0.001897 -0.776660 0.287440
v 0.422161 -0.446327 0.478438
v 0.634773 -0.139531 0.578511
v 0.767616 0.112387 0.598941
v 0.839458 0.544237 0.618441
v 0.819221 0.757955 0.572370
v 0.706849 0.965062 0.459998
v 0.560400 1.123980 0.099462
v 0.399077 1.112240 0.106550
v 0.049779 -0.913021 0.085809
v 0.171887 -0.834241 0.157021
v 0.365214 -0.710503 0.220390
v 0.542161 -0.472929 0.277418
v 0.802904 -0.149882 0.328378
v 0.963034 0.090616 0.339179
v 1.058431 0.516774 0.329641
v 1.006951 0.757955 0.291411
v 0.860130 0.965062 0.230596
v 0.668787 1.123980 0.027064
v 0.449998 1.125044 0.038970
v 0.400846 -0.729942 -0.000122
v 0.913945 0.965062 -0.000130
vn 0.0277 0.4124 0.9106
vn -0.1417 0.6248 0.7679
vn -0.0881 0.4905 0.8670
vn 0.2088 -0.9779 -0.0043
vn 0.1864 -0.9327 0.3087
vn 0.0676 -0.9262 0.3709
vn 0.2134 -0.9723 0.0949
vn 1.0000 -0.0000 -0.0000
vn 0.1732 0.9276 0.3311
vn -1.0000 -0.0000 -0.0000
vn 0.1428 -0.3450 0.9277
vn 0.1454 -0.2078 0.9673
vn 0.0664 -0.1615 0.9846
vn 0.0941 -0.3514 0.9315
vn 0.1099 0.1551 0.9818
vn -0.0224 0.2017 0.9792
vn 0.2135 -0.9705 -0.1121
vn 0.1474 -0.6745 0.7234
vn 0.0897 -0.7068 0.7017
vn 0.1299 -0.0323 0.9910
vn 0.0161 0.0103 0.9998
vn -0.4484 0.3999 0.7994
vn -0.4854 0.2078 0.8492
vn -0.2591 -0.7298 0.6327
vn -0.0791 -0.9707 0.2268
vn -0.4651 -0.0926 0.8804
vn -0.2695 0.6954 0.6662
vn -0.3727 0.5819 0.7228
vn 0.1526 -0.9797 0.1303
vn -0.3452 0.8342 0.4300
vn -0.4209 -0.4189 0.8046
vn -0.6466 0.6517 0.3965
vn -0.7438 0.5526 0.3760
vn 0.1235 -0.9920 0.0243
vn -0.2663 0.7797 0.5667
vn -0.3502 0.8656 0.3579
vn -0.3744 0.8171 0.4383
vn -0.8323 -0.4221 0.3594
vn -0.6011 -0.7422 0.2963
vn -0.8488 0.3418 0.4034
vn -0.5255 0.7373 0.4245
vn -0.2318 -0.9594 0.1605
vn -0.9112 -0.0182 0.4115
vn -0.9075 0.3578 0.2202
vn -0.9757 -0.0129 0.2186
vn -0.6356 0.7424 0.2117
vn -0.7392 0.6323 0.2319
vn -0.4467 -0.8783 0.1706
vn 0.0883 -0.9958 0.0259
vn -0.4496 0.8602 0.2406
vn -0.8873 -0.4151 0.2009
vn -0.7943 0.5621 0.2305
vn -0.4892 0.8469 0.2084
vn -0.6840 -0.7047 0.1884
vn 0.0277 -0.4124 -0.9106
vn -0.1417 -0.6248 -0.7679
vn -0.0882 -0.4905 -0.8670
vn 0.2088 0.9779 0.0043
vn 0.1864 0.9327 -0.3087
vn 0.0676 0.9262 -0.3709
vn 0.2134 0.9723 -0.0949
vn 0.1732 -0.9276 -0.3311
vn 0.1428 0.3450 -0.9277
vn 0.1454 0.2078 -0.9673
vn 0.0664 0.1615 -0.9846
vn 0.0941 0.3514 -0.9315
vn 0.1098 -0.1551 -0.9818
vn -0.0224 -0.2017 -0.9792
vn 0.2135 0.9705 0.1121
vn 0.1474 0.6745 -0.7234
vn 0.0897 0.7068 -0.7017
vn 0.1299 0.0323 -0.9910
vn 0.0161 -0.0103 -0.9998
vn -0.4485 -0.3999 -0.7994
vn -0.4854 -0.2078 -0.8492
vn -0.2591 0.7298 -0.6327
vn -0.0791 0.9707 -0.2268
vn -0.4651 0.0926 -0.8804
vn -0.2695 -0.6954 -0.6662
vn -0.3727 -0.5819 -0.7228
vn 0.1526 0.9797 -0.1303
vn -0.3452 -0.8342 -0.4300
vn -0.4209 0.4189 -0.8046
vn -0.6467 -0.6517 -0.3965
vn -0.7438 -0.5526 -0.3760
vn 0.1235 0.9920 -0.0243
vn -0.2663 -0.7797 -0.5667
vn -0.3502 -0.8656 -0.3579
vn -0.3744 -0.8171 -0.4383
vn -0.8323 0.4221 -0.3594
vn -0.6011 0.7422 -0.2963
vn -0.8488 -0.3418 -0.4034
vn -0.5255 -0.7373 -0.4245
vn -0.2318 0.9594 -0.1605
vn -0.9113 0.0182 -0.4114
vn -0.9075 -0.3578 -0.2202
vn -0.9757 0.0129 -0.2186
vn -0.6356 -0.7424 -0.2117
vn -0.7392 -0.6323 -0.2318
vn -0.4467 0.8783 -0.1706
vn 0.0883 0.9958 -0.0259
vn -0.4496 -0.8602 -0.2406
vn -0.8873 0.4151 -0.2009
vn -0.7943 -0.5621 -0.2305
vn -0.4892 -0.8469 -0.2084
vn -0.6840 0.7047 -0.1884
vn -0.0277 0.4124 -0.9106
vn 0.1417 0.6248 -0.7679
vn 0.0881 0.4905 -0.8670
vn -0.2088 -0.9779 0.0043
vn -0.1864 -0.9327 -0.3087
vn -0.0676 -0.9262 -0.3709
vn -0.2134 -0.9723 -0.0949
vn -0.1732 0.9276 -0.3311
vn -0.1428 -0.3450 -0.9277
vn -0.1454 -0.2078 -0.9673
vn -0.0664 -0.1615 -0.9846
vn -0.0941 -0.3514 -0.9315
vn -0.1099 0.1551 -0.9818
vn 0.0224 0.2017 -0.9792
vn -0.2135 -0.9705 0.1121
vn -0.1474 -0.6745 -0.7234
vn -0.0897 -0.7068 -0.7017
vn -0.1299 -0.0323 -0.9910
vn -0.0161 0.0103 -0.9998
vn 0.4484 0.3999 -0.7994
vn 0.4854 0.2078 -0.8492
vn 0.2591 -0.7298 -0.6327
vn 0.0791 -0.9707 -0.2268
vn 0.4651 -0.0926 -0.8804
vn 0.2695 0.6954 -0.6662
vn 0.3727 0.5819 -0.7228
vn -0.1526 -0.9797 -0.1303
vn 0.3452 0.8342 -0.4300
vn 0.4209 -0.4189 -0.8046
vn 0.6466 0.6517 -0.3965
vn 0.7438 0.5526 -0.3760
vn -0.1235 -0.9920 -0.0243
vn 0.2663 0.7797 -0.5667
vn 0.3502 0.8656 -0.3579
vn 0.3744 0.8171 -0.4383
vn 0.8323 -0.4221 -0.3594
vn 0.6011 -0.7422 -0.2963
vn 0.8488 0.3418 -0.4034
vn 0.5255 0.7373 -0.4245
vn 0.2318 -0.9594 -0.1605
vn 0.9112 -0.0182 -0.4115
vn 0.9075 0.3578 -0.2202
vn 0.9757 -0.0129 -0.2186
vn 0.6356 0.7424 -0.2117
vn 0.7392 0.6323 -0.2319
vn 0.4467 -0.8783 -0.1706
vn -0.0883 -0.9958 -0.0259
vn 0.4496 0.8602 -0.2406
vn 0.8873 -0.4151 -0.2009
vn 0.7943 0.5621 -0.2305
vn 0.4892 0.8469 -0.2084
vn 0.6840 -0.7047 -0.1884
vn -0.0277 -0.4124 0.9106
vn 0.1417 -0.6248 0.7679
vn 0.0882 -0.4905 0.8670
vn -0.2088 0.9779 -0.0043
vn -0.1864 0.9327 0.3087
vn -0.0676 0.9262 0.3709
vn -0.2134 0.9723 0.0949
vn -0.1732 -0.9276 0.3311
vn -0.1428 0.3450 0.9277
vn -0.1454 0.2078 0.9673
vn -0.0664 0.1615 0.9846
vn -0.0941 0.3514 0.9315
vn -0.1098 -0.1551 0.9818
vn 0.0224 -0.2017 0.9792
vn -0.2135 0.9705 -0.1121
vn -0.1474 0.6745 0.7234
vn -0.0897 0.7068 0.7017
vn -0.1299 0.0323 0.9910
vn -0.0161 -0.0103 0.9998
vn 0.4485 -0.3999 0.7994
vn 0.4854 -0.2078 0.8492
vn 0.2591 0.7298 0.6327
vn 0.0791 0.9707 0.2268
vn 0.4651 0.0926 0.8804
vn 0.2695 -0.6954 0.6662
vn 0.3727 -0.5819 0.7228
vn -0.1526 0.9797 0.1303
vn 0.3452 -0.8342 0.4300
vn 0.4209 0.4189 0.8046
vn 0.6467 -0.6517 0.3965
vn 0.7438 -0.5526 0.3760
vn -0.1235 0.9920 0.0243
vn 0.2663 -0.7797 0.5667
vn 0.3502 -0.8656 0.3579
vn 0.3744 -0.8171 0.4383
vn 0.8323 0.4221 0.3594
vn 0.6011 0.7422 0.2963
vn 0.8488 -0.3418 0.4034
vn 0.5255 -0.7373 0.4245
vn 0.2318 0.9594 0.1605
vn 0.9113 0.0182 0.4114
vn 0.9075 -0.3578 0.2202
vn 0.9757 0.0129 0.2186
vn 0.6356 -0.7424 0.2117
vn 0.7392 -0.6323 0.2318
vn 0.4467 0.8783 0.1706
vn -0.0883 0.9958 0.0259
vn 0.4496 -0.8602 0.2406
vn 0.8873 0.4151 0.2009
vn 0.7943 -0.5621 0.2305
vn 0.4892 -0.8469 0.2084
vn 0.6840 0.7047 0.1884
vt 0.773650 0.130678
vt 0.781591 0.105346
vt 0.811258 0.148430
vt 0.784946 0.489479
vt 0.777852 0.462509
vt 0.850615 0.436721
vt 0.820590 0.464947
vt 0.822136 0.000142
vt 0.828791 0.000713
vt 0.819223 0.011838
vt 0.757943 0.386055
vt 0.750015 0.334649
vt 0.821378 0.325929
vt 0.827413 0.367038
vt 0.756900 0.202887
vt 0.811092 0.212903
vt 0.787941 0.502630
vt 0.767112 0.419101
vt 0.831921 0.405732
vt 0.750857 0.248777
vt 0.813195 0.253791
vt 0.869448 0.221454
vt 0.884133 0.263776
vt 0.881414 0.389434
vt 0.884297 0.455158
vt 0.890157 0.325765
vt 0.796136 0.064543
vt 0.848505 0.159411
vt 0.856730 0.463567
vt 0.816540 0.021793
vt 0.889594 0.355535
vt 0.888742 0.144148
vt 0.919718 0.213132
vt 0.869639 0.472574
vt 0.807637 0.038337
vt 0.827918 0.024080
vt 0.840621 0.054257
vt 0.935991 0.366552
vt 0.920114 0.404224
vt 0.935683 0.259739
vt 0.865007 0.093122
vt 0.907219 0.459245
vt 0.941862 0.328628
vt 0.999858 0.253055
vt 0.999858 0.339756
vt 0.899299 0.066159
vt 0.938899 0.116802
vt 0.915714 0.460933
vt 0.874776 0.478469
vt 0.844511 0.014301
vt 0.983552 0.384891
vt 0.985071 0.200792
vt 0.873647 0.039989
vt 0.955564 0.427265
vt 0.272010 0.131491
vt 0.279812 0.106013
vt 0.309862 0.149052
vt 0.286487 0.489856
vt 0.279204 0.463153
vt 0.351269 0.436981
vt 0.321661 0.465229
vt 0.319842 0.000142
vt 0.326526 0.000673
vt 0.316991 0.011902
vt 0.258551 0.387359
vt 0.250015 0.336105
vt 0.321179 0.326739
vt 0.327604 0.367736
vt 0.255722 0.204066
vt 0.310116 0.213705
vt 0.289568 0.502873
vt 0.268067 0.420187
vt 0.332481 0.406290
vt 0.250036 0.250120
vt 0.312496 0.254645
vt 0.368641 0.221914
vt 0.383539 0.264211
vt 0.382023 0.389781
vt 0.384727 0.455076
vt 0.389672 0.326044
vt 0.294149 0.064957
vt 0.347298 0.159829
vt 0.357488 0.463572
vt 0.314361 0.021913
vt 0.389061 0.355569
vt 0.387583 0.144282
vt 0.419018 0.213332
vt 0.370331 0.472402
vt 0.305528 0.038577
vt 0.325797 0.024137
vt 0.338740 0.054351
vt 0.435729 0.367208
vt 0.419859 0.404440
vt 0.435208 0.260019
vt 0.363461 0.093211
vt 0.407409 0.458981
vt 0.441578 0.329088
vt 0.499605 0.253173
vt 0.499605 0.340271
vt 0.397723 0.065933
vt 0.437793 0.116549
vt 0.415818 0.460598
vt 0.375458 0.478200
vt 0.342393 0.014215
vt 0.483091 0.385462
vt 0.484595 0.200695
vt 0.371806 0.039820
vt 0.455058 0.427315
vt 0.523524 0.130678
vt 0.531465 0.105346
vt 0.561132 0.148430
vt 0.534819 0.489479
vt 0.527726 0.462509
vt 0.600488 0.436721
vt 0.570464 0.464948
vt 0.572009 0.000142
vt 0.578664 0.000713
vt 0.569096 0.011838
vt 0.507817 0.386055
vt 0.499889 0.334649
vt 0.571252 0.325929
vt 0.577286 0.367038
vt 0.506773 0.202887
vt 0.560966 0.212903
vt 0.537815 0.502630
vt 0.516986 0.419101
vt 0.581795 0.405733
vt 0.500731 0.248777
vt 0.563069 0.253791
vt 0.619321 0.221454
vt 0.634007 0.263776
vt 0.631288 0.389434
vt 0.634171 0.455159
vt 0.640030 0.325765
vt 0.546009 0.064543
vt 0.598379 0.159411
vt 0.606604 0.463567
vt 0.566413 0.021793
vt 0.639468 0.355535
vt 0.638616 0.144148
vt 0.669591 0.213132
vt 0.619513 0.472574
vt 0.557510 0.038337
vt 0.577791 0.024080
vt 0.590495 0.054257
vt 0.685865 0.366552
vt 0.669987 0.404225
vt 0.685556 0.259739
vt 0.614881 0.093122
vt 0.657093 0.459245
vt 0.691735 0.328628
vt 0.749732 0.253055
vt 0.749732 0.339756
vt 0.649173 0.066159
vt 0.688772 0.116802
vt 0.665587 0.460933
vt 0.624650 0.478469
vt 0.594384 0.014301
vt 0.733425 0.384891
vt 0.734944 0.200792
vt 0.623521 0.039989
vt 0.705438 0.427265
vt 0.022137 0.131491
vt 0.029939 0.106013
vt 0.059989 0.149052
vt 0.036614 0.489856
vt 0.029331 0.463153
vt 0.101395 0.436981
vt 0.071787 0.465229
vt 0.069968 0.000142
vt 0.076653 0.000673
vt 0.067118 0.011902
vt 0.008678 0.387359
vt 0.000142 0.336105
vt 0.071305 0.326739
vt 0.077731 0.367736
vt 0.005848 0.204066
vt 0.060242 0.213705
vt 0.039694 0.502873
vt 0.018193 0.420187
vt 0.082608 0.406290
vt 0.000163 0.250120
vt 0.062622 0.254645
vt 0.118767 0.221914
vt 0.133665 0.264211
vt 0.132149 0.389781
vt 0.134854 0.455076
vt 0.139798 0.326044
vt 0.044275 0.064957
vt 0.097425 0.159829
vt 0.107615 0.463573
vt 0.064487 0.021913
vt 0.139187 0.355569
vt 0.137710 0.144282
vt 0.169145 0.213332
vt 0.120458 0.472402
vt 0.055654 0.038577
vt 0.075924 0.024137
vt 0.088867 0.054351
vt 0.185855 0.367208
vt 0.169985 0.404440
vt 0.185334 0.260019
vt 0.113587 0.093211
vt 0.157535 0.458981
vt 0.191705 0.329088
vt 0.249732 0.253173
vt 0.249732 0.340271
vt 0.147850 0.065933
vt 0.187919 0.116549
vt 0.165944 0.460598
vt 0.125585 0.478200
vt 0.092520 0.014215
vt 0.233217 0.385462
vt 0.234722 0.200695
vt 0.121933 0.039820
vt 0.205185 0.427315
s 1
usemtl Material.001
f 14/1/1 13/2/2 23/3/3
f 21/4/4 20/5/5 29/6/6 30/7/7
f 12/8/8 10/9/9 22/10/10
f 18/11/11 17/12/12 26/13/13 27/14/14
f 15/15/15 14/1/1 23/3/3 24/16/16
f 11/17/17 21/4/4 30/7/7
f 19/18/18 18/11/11 27/14/14 28/19/19
f 16/20/20 15/15/15 24/16/16 25/21/21
f 20/5/5 19/18/18 28/19/19 29/6/6
f 17/12/12 16/20/20 25/21/21 26/13/13
f 25/21/21 24/16/16 35/22/22 36/23/23
f 29/6/6 28/19/19 39/24/24 40/25/25
f 26/13/13 25/21/21 36/23/23 37/26/26
f 23/3/3 13/2/2 33/27/27 34/28/28
f 30/7/7 29/6/6 40/25/25 41/29/29
f 22/10/10 10/9/9 31/30/30
f 27/14/14 26/13/13 37/26/26 38/31/31
f 24/16/16 23/3/3 34/28/28 35/22/22
f 11/17/17 30/7/7 41/29/29
f 28/19/19 27/14/14 38/31/31 39/24/24
f 35/22/22 34/28/28 45/32/32 46/33/33
f 11/17/17 41/29/29 52/34/34
f 32/35/35 31/30/30 42/36/36 43/37/37
f 39/24/24 38/31/31 49/38/38 50/39/39
f 36/23/23 35/22/22 46/33/33 47/40/40
f 33/27/27 32/35/35 43/37/37 44/41/41
f 40/25/25 39/24/24 50/39/39 51/42/42
f 37/26/26 36/23/23 47/40/40 48/43/43
f 34/28/28 33/27/27 44/41/41 45/32/32
f 41/29/29 40/25/25 51/42/42 52/34/34
f 31/30/30 10/9/9 42/36/36
f 38/31/31 37/26/26 48/43/43 49/38/38
f 48/43/43 47/40/40 5/44/44 6/45/45
f 45/32/32 44/41/41 53/46/46 3/47/47
f 52/34/34 51/42/42 8/48/48 9/49/49
f 42/36/36 10/9/9 1/50/50
f 49/38/38 48/43/43 6/45/45 7/51/51
f 46/33/33 45/32/32 3/47/47 4/52/52
f 11/17/17 52/34/34 9/49/49
f 43/37/37 42/36/36 1/50/50 2/53/53
f 50/39/39 49/38/38 7/51/51 54/54/54
f 47/40/40 46/33/33 4/52/52 5/44/44
f 44/41/41 43/37/37 2/53/53 53/46/46
f 51/42/42 50/39/39 54/54/54 8/48/48
f 68/55/55 67/56/56 77/57/57
f 75/58/58 74/59/59 83/60/60 84/61/61
f 66/62/8 64/63/62 76/64/10
f 72/65/63 71/66/64 80/67/65 81/68/66
f 69/69/67 68/55/55 77/57/57 78/70/68
f 65/71/69 75/58/58 84/61/61
f 73/72/70 72/65/63 81/68/66 82/73/71
f 70/74/72 69/69/67 78/70/68 79/75/73
f 74/59/59 73/72/70 82/73/71 83/60/60
f 71/66/64 70/74/72 79/75/73 80/67/65
f 79/75/73 78/70/68 89/76/74 90/77/75
f 83/60/60 82/73/71 93/78/76 94/79/77
f 80/67/65 79/75/73 90/77/75 91/80/78
f 77/57/57 67/56/56 87/81/79 88/82/80
f 84/61/61 83/60/60 94/79/77 95/83/81
f 76/64/10 64/63/62 85/84/82
f 81/68/66 80/67/65 91/80/78 92/85/83
f 78/70/68 77/57/57 88/82/80 89/76/74
f 65/71/69 84/61/61 95/83/81
f 82/73/71 81/68/66 92/85/83 93/78/76
f 89/76/74 88/82/80 99/86/84 100/87/85
f 65/71/69 95/83/81 106/88/86
f 86/89/87 85/84/82 96/90/88 97/91/89
f 93/78/76 92/85/83 103/92/90 104/93/91
f 90/77/75 89/76/74 100/87/85 101/94/92
f 87/81/79 86/89/87 97/91/89 98/95/93
f 94/79/77 93/78/76 104/93/91 105/96/94
f 91/80/78 90/77/75 101/94/92 102/97/95
f 88/82/80 87/81/79 98/95/93 99/86/84
f 95/83/81 94/79/77 105/96/94 106/88/86
f 85/84/82 64/63/62 96/90/88
f 92/85/83 91/80/78 102/97/95 103/92/90
f 102/97/95 101/94/92 59/98/96 60/99/97
f 99/86/84 98/95/93 107/100/98 57/101/99
f 106/88/86 105/96/94 62/102/100 63/103/101
f 96/90/88 64/63/62 55/104/102
f 103/92/90 102/97/95 60/99/97 61/105/103
f 100/87/85 99/86/84 57/101/99 58/106/104
f 65/71/69 106/88/86 63/103/101
f 97/91/89 96/90/88 55/104/102 56/107/105
f 104/93/91 103/92/90 61/105/103 108/108/106
f 101/94/92 100/87/85 58/106/104 59/98/96
f 98/95/93 97/91/89 56/107/105 107/100/98
f 105/96/94 104/93/91 108/108/106 62/102/100
f 122/109/107 121/110/108 131/111/109
f 129/112/110 128/113/111 137/114/112 138/115/113
f 120/116/10 118/117/114 130/118/8
f 126/119/115 125/120/116 134/121/117 135/122/118
f 123/123/119 122/109/107 131/111/109 132/124/120
f 119/125/121 129/112/110 138/115/113
f 127/126/122 126/119/115 135/122/118 136/127/123
f 124/128/124 123/123/119 132/124/120 133/129/125
f 128/113/111 127/126/122 136/127/123 137/114/112
f 125/120/116 124/128/124 133/129/125 134/121/117
f 133/129/125 132/124/120 143/130/126 144/131/127
f 137/114/112 136/127/123 147/132/128 148/133/129
f 134/121/117 133/129/125 144/131/127 145/134/130
f 131/111/109 121/110/108 141/135/131 142/136/132
f 138/115/113 137/114/112 148/133/129 149/137/133
f 130/118/8 118/117/114 139/138/134
f 135/122/118 134/121/117 145/134/130 146/139/135
f 132/124/120 131/111/109 142/136/132 143/130/126
f 119/125/121 138/115/113 149/137/133
f 136/127/123 135/122/118 146/139/135 147/132/128
f 143/130/126 142/136/132 153/140/136 154/141/137
f 119/125/121 149/137/133 160/142/138
f 140/143/139 139/138/134 150/144/140 151/145/141
f 147/132/128 146/139/135 157/146/142 158/147/143
f 144/131/127 143/130/126 154/141/137 155/148/144
f 141/135/131 140/143/139 151/145/141 152/149/145
f 148/133/129 147/132/128 158/147/143 159/150/146
f 145/134/130 144/131/127 155/148/144 156/151/147
f 142/136/132 141/135/131 152/149/145 153/140/136
f 149/137/133 148/133/129 159/150/146 160/142/138
f 139/138/134 118/117/114 150/144/140
f 146/139/135 145/134/130 156/151/147 157/146/142
f 156/151/147 155/148/144 113/152/148 114/153/149
f 153/140/136 152/149/145 161/154/150 111/155/151
f 160/142/138 159/150/146 116/156/152 117/157/153
f 150/144/140 118/117/114 109/158/154
f 157/146/142 156/151/147 114/153/149 115/159/155
f 154/141/137 153/140/136 111/155/151 112/160/156
f 119/125/121 160/142/138 117/157/153
f 151/145/141 150/144/140 109/158/154 110/161/157
f 158/147/143 157/146/142 115/159/155 162/162/158
f 155/148/144 154/141/137 112/160/156 113/152/148
f 152/149/145 151/145/141 110/161/157 161/154/150
f 159/150/146 158/147/143 162/162/158 116/156/152
f 176/163/159 175/164/160 185/165/161
f 183/166/162 182/167/163 191/168/164 192/169/165
f 174/170/10 172/171/166 184/172/8
f 180/173/167 179/174/168 188/175/169 189/176/170
f 177/177/171 176/163/159 185/165/161 186/178/172
f 173/179/173 183/166/162 192/169/165
f 181/180/174 180/173/167 189/176/170 190/181/175
f 178/182/176 177/177/171 186/178/172 187/183/177
f 182/167/163 181/180/174 190/181/175 191/168/164
f 179/174/168 178/182/176 187/183/177 188/175/169
f 187/183/177 186/178/172 197/184/178 198/185/179
f 191/168/164 190/181/175 201/186/180 202/187/181
f 188/175/169 187/183/177 198/185/179 199/188/182
f 185/165/161 175/164/160 195/189/183 196/190/184
f 192/169/165 191/168/164 202/187/181 203/191/185
f 184/172/8 172/171/166 193/192/186
f 189/176/170 188/175/169 199/188/182 200/193/187
f 186/178/172 185/165/161 196/190/184 197/184/178
f 173/179/173 192/169/165 203/191/185
f 190/181/175 189/176/170 200/193/187 201/186/180
f 197/184/178 196/190/184 207/194/188 208/195/189
f 173/179/173 203/191/185 214/196/190
f 194/197/191 193/192/186 204/198/192 205/199/193
f 201/186/180 200/193/187 211/200/194 212/201/195
f 198/185/179 197/184/178 208/195/189 209/202/196
f 195/189/183 194/197/191 205/199/193 206/203/197
f 202/187/181 201/186/180 212/201/195 213/204/198
f 199/188/182 198/185/179 209/202/196 210/205/199
f 196/190/184 195/189/183 206/203/197 207/194/188
f 203/191/185 202/187/181 213/204/198 214/196/190
f 193/192/186 172/171/166 204/198/192
f 200/193/187 199/188/182 210/205/199 211/200/194
f 210/205/199 209/202/196 167/206/200 168/207/201
f 207/194/188 206/203/197 215/208/202 165/209/203
f 214/196/190 213/204/198 170/210/204 171/211/205
f 204/198/192 172/171/166 163/212/206
f 211/200/194 210/205/199 168/207/201 169/213/207
f 208/195/189 207/194/188 165/209/203 166/214/208
f 173/179/173 214/196/190 171/211/205
f 205/199/193 204/198/192 163/212/206 164/215/209
f 212/201/195 211/200/194 169/213/207 216/216/210
f 209/202/196 208/195/189 166/214/208 167/206/200
f 206/203/197 205/199/193 164/215/209 215/208/202
f 213/204/198 212/201/195 216/216/210 170/210/204
