# Blender 4.0.2
# www.blender.org
mtllib pickaxe.mtl
o pickaxe
v 0.000000 2.070413 0.000000
v 0.028889 2.070347 -0.000000
v 0.029533 2.070151 -0.000000
v 0.030127 2.069834 -0.000000
v 0.030647 2.069407 -0.000000
v 0.031074 2.068886 -0.000000
v 0.031392 2.068293 -0.000000
v 0.031587 0.521916 -0.000000
v 0.039178 0.497683 0.000000
v 0.038426 -0.007643 0.000000
v 0.036196 -0.014993 -0.000000
v 0.032576 -0.021766 0.000000
v 0.027703 -0.027703 -0.000000
v 0.021766 -0.032576 0.000000
v 0.014993 -0.036196 0.000000
v 0.007643 -0.038426 -0.000000
v 0.028876 2.070347 0.005717
v 0.029508 2.070151 0.005843
v 0.030090 2.069834 0.005958
v 0.030600 2.069407 0.006060
v 0.031019 2.068886 0.006143
v 0.031331 2.068293 0.006205
v 0.031522 0.521916 0.006243
v 0.038426 0.497683 0.007643
v 0.037687 -0.007643 0.007496
v 0.035501 -0.014993 0.007062
v 0.031950 -0.021766 0.006355
v 0.027171 -0.027703 0.005405
v 0.021348 -0.032576 0.004246
v 0.014705 -0.036196 0.002925
v 0.007496 -0.038426 0.001491
v 0.028838 2.070347 0.012835
v 0.029433 2.070151 0.013081
v 0.029981 2.069834 0.013308
v 0.030462 2.069407 0.013508
v 0.030857 2.068886 0.013671
v 0.031150 2.068293 0.013792
v 0.031331 0.521916 0.013867
v 0.036196 0.497683 0.014993
v 0.035501 -0.007643 0.014705
v 0.033441 -0.014993 0.013852
v 0.030096 -0.021766 0.012466
v 0.025595 -0.027703 0.010602
v 0.020109 -0.032576 0.008330
v 0.013852 -0.036196 0.005738
v 0.007062 -0.038426 0.002925
v 0.028776 2.070347 0.019151
v 0.029311 2.070151 0.019509
v 0.029805 2.069834 0.019839
v 0.030238 2.069407 0.020128
v 0.030593 2.068886 0.020365
v 0.030857 2.068293 0.020542
v 0.031019 0.521916 0.020650
v 0.032576 0.497683 0.021766
v 0.031950 -0.007643 0.021348
v 0.030096 -0.014993 0.020109
v 0.027086 -0.021766 0.018098
v 0.023034 -0.027703 0.015391
v 0.018098 -0.032576 0.012093
v 0.012466 -0.036196 0.008330
v 0.006355 -0.038426 0.004246
v 0.025688 2.070436 0.025471
v 0.026143 2.070240 0.025927
v 0.026563 2.069923 0.026347
v 0.026931 2.069496 0.026715
v 0.027233 2.068976 0.027017
v 0.027458 2.068382 0.027241
v 0.027596 0.522005 0.027379
v 0.027703 0.497683 0.027703
v 0.027171 -0.007643 0.027171
v 0.025595 -0.014993 0.025595
v 0.023034 -0.021766 0.023034
v 0.019589 -0.027703 0.019589
v 0.015391 -0.032576 0.015391
v 0.010602 -0.036196 0.010602
v 0.005405 -0.038426 0.005405
v 0.000000 -0.039178 0.000000
v 0.019243 2.070347 0.028776
v 0.019601 2.070151 0.029311
v 0.019931 2.069834 0.029805
v 0.020220 2.069407 0.030238
v 0.020457 2.068886 0.030593
v 0.020633 2.040278 0.023284
v 0.020742 0.521916 0.031019
v 0.021766 0.497683 0.032576
v 0.021348 -0.007643 0.031950
v 0.020110 -0.014993 0.030096
v 0.018098 -0.021766 0.027086
v 0.015391 -0.027703 0.023034
v 0.012093 -0.032576 0.018098
v 0.008330 -0.036196 0.012466
v 0.004246 -0.038426 0.006355
v 0.012875 2.070347 0.028838
v 0.013122 2.070151 0.029433
v 0.013349 2.069834 0.029981
v 0.013548 2.069407 0.030462
v 0.013712 2.068886 0.030857
v 0.013833 2.040314 0.023575
v 0.013908 0.521916 0.031331
v 0.014993 0.497683 0.036196
v 0.014705 -0.007643 0.035501
v 0.013852 -0.014993 0.033441
v 0.012466 -0.021766 0.030096
v 0.010602 -0.027703 0.025595
v 0.008330 -0.032576 0.020109
v 0.005738 -0.036196 0.013852
v 0.002925 -0.038426 0.007062
v 0.006303 2.070347 0.028876
v 0.006429 2.070151 0.029508
v 0.006544 2.069834 0.030090
v 0.006646 2.069407 0.030600
v 0.006729 2.068886 0.031019
v 0.006791 2.040335 0.023754
v 0.006829 0.521916 0.031522
v 0.007643 0.497683 0.038426
v 0.007496 -0.007643 0.037687
v 0.007062 -0.014993 0.035501
v 0.006355 -0.021766 0.031950
v 0.005405 -0.027703 0.027171
v 0.004246 -0.032576 0.021348
v 0.002925 -0.036196 0.014705
v 0.001491 -0.038426 0.007496
v 0.000000 2.070347 0.028889
v 0.000000 2.070151 0.029533
v 0.000000 2.069834 0.030127
v 0.000000 2.069407 0.030647
v 0.000000 2.068886 0.031074
v 0.000000 2.040343 0.023815
v 0.000000 0.521916 0.031587
v -0.000000 0.497683 0.039178
v -0.000000 -0.007643 0.038426
v 0.000000 -0.014993 0.036196
v -0.000000 -0.021766 0.032576
v 0.000000 -0.027703 0.027703
v -0.000000 -0.032576 0.021766
v -0.000000 -0.036196 0.014993
v -0.000000 -0.038426 0.007643
v 0.031424 1.810563 -0.000000
v 0.031457 1.552834 -0.000000
v 0.031489 1.295104 -0.000000
v 0.031522 1.037375 -0.000000
v 0.031554 0.779645 -0.000000
v 0.031363 1.810563 0.006212
v 0.031394 1.552834 0.006218
v 0.031426 1.295104 0.006224
v 0.031458 1.037375 0.006231
v 0.031490 0.779645 0.006237
v 0.031180 1.810563 0.013805
v 0.031210 1.552834 0.013817
v 0.031240 1.295104 0.013830
v 0.031270 1.037375 0.013842
v 0.031301 0.779645 0.013855
v 0.030884 1.810563 0.020560
v 0.030911 1.552834 0.020578
v 0.030938 1.295104 0.020596
v 0.030965 1.037375 0.020614
v 0.030992 0.779645 0.020632
v 0.027481 1.810653 0.027264
v 0.027504 1.552923 0.027287
v 0.027527 1.295194 0.027310
v 0.027550 1.037464 0.027333
v 0.027573 0.779734 0.027356
v 0.020651 1.920513 0.018318
v 0.020670 1.552834 0.030911
v 0.020688 1.295104 0.030938
v 0.020706 1.037375 0.030965
v 0.020724 0.779645 0.030992
v 0.013846 1.920548 0.018612
v 0.013858 1.552834 0.031210
v 0.013871 1.295104 0.031240
v 0.013883 1.037375 0.031270
v 0.013896 0.779645 0.031300
v 0.006798 1.920570 0.018793
v 0.006804 1.552834 0.031394
v 0.006810 1.295104 0.031426
v 0.006817 1.037375 0.031458
v 0.006823 0.779645 0.031490
v 0.000000 1.920577 0.018855
v 0.000000 1.552834 0.031457
v 0.000000 1.295104 0.031489
v 0.000000 1.037375 0.031522
v 0.000000 0.779645 0.031554
v 0.013833 2.068812 0.480461
v 0.020633 2.069078 0.480338
v 0.006791 2.068648 0.480537
v 0.000000 2.068592 0.480562
v 0.020651 1.984104 0.369203
v 0.013846 1.983834 0.369327
v 0.006798 1.983669 0.369403
v 0.000000 1.983613 0.369429
v 0.013833 2.068812 0.480461
v 0.020633 2.069078 0.480338
v 0.006791 2.068648 0.480537
v 0.000000 2.068592 0.480562
v 0.020651 1.984104 0.369203
v 0.013846 1.983834 0.369327
v 0.006798 1.983669 0.369403
v 0.000000 1.983613 0.369429
v 0.013833 1.872350 0.782590
v 0.020633 1.872501 0.782338
v 0.006791 1.872256 0.782744
v 0.000000 1.872225 0.782796
v 0.020651 1.871319 0.782073
v 0.013846 1.871166 0.782327
v 0.006798 1.871072 0.782483
v 0.000000 1.871040 0.782536
v 0.000000 2.070413 0.000008
v 0.028889 2.070347 0.000008
v 0.029533 2.070151 0.000008
v 0.030127 2.069834 0.000008
v 0.030647 2.069407 0.000008
v 0.031074 2.068886 0.000008
v 0.031392 2.068293 0.000008
v 0.031587 0.521916 0.000008
v 0.039178 0.497683 0.000008
v 0.038426 -0.007643 0.000008
v 0.036196 -0.014993 0.000008
v 0.032576 -0.021766 0.000008
v 0.027703 -0.027703 0.000008
v 0.021766 -0.032576 0.000008
v 0.014993 -0.036196 0.000008
v 0.007643 -0.038426 0.000008
v 0.028876 2.070347 -0.005709
v 0.029508 2.070151 -0.005835
v 0.030090 2.069834 -0.005951
v 0.030600 2.069407 -0.006052
v 0.031019 2.068886 -0.006136
v 0.031331 2.068293 -0.006198
v 0.031522 0.521916 -0.006236
v 0.038426 0.497683 -0.007636
v 0.037687 -0.007643 -0.007489
v 0.035501 -0.014993 -0.007054
v 0.031950 -0.021766 -0.006348
v 0.027171 -0.027703 -0.005397
v 0.021348 -0.032576 -0.004239
v 0.014705 -0.036196 -0.002917
v 0.007496 -0.038426 -0.001484
v 0.028838 2.070347 -0.012827
v 0.029433 2.070151 -0.013074
v 0.029981 2.069834 -0.013301
v 0.030462 2.069407 -0.013500
v 0.030857 2.068886 -0.013663
v 0.031150 2.068293 -0.013785
v 0.031331 0.521916 -0.013860
v 0.036196 0.497683 -0.014985
v 0.035501 -0.007643 -0.014697
v 0.033441 -0.014993 -0.013844
v 0.030096 -0.021766 -0.012459
v 0.025595 -0.027703 -0.010594
v 0.020110 -0.032576 -0.008322
v 0.013852 -0.036196 -0.005730
v 0.007062 -0.038426 -0.002917
v 0.028776 2.070347 -0.019144
v 0.029311 2.070151 -0.019502
v 0.029805 2.069834 -0.019832
v 0.030238 2.069407 -0.020121
v 0.030593 2.068886 -0.020358
v 0.030857 2.068293 -0.020534
v 0.031019 0.521916 -0.020643
v 0.032576 0.497683 -0.021759
v 0.031950 -0.007643 -0.021341
v 0.030096 -0.014993 -0.020102
v 0.027086 -0.021766 -0.018091
v 0.023034 -0.027703 -0.015384
v 0.018098 -0.032576 -0.012085
v 0.012466 -0.036196 -0.008322
v 0.006355 -0.038426 -0.004239
v 0.025688 2.070436 -0.025464
v 0.026143 2.070240 -0.025919
v 0.026563 2.069923 -0.026339
v 0.026931 2.069496 -0.026707
v 0.027233 2.068976 -0.027009
v 0.027458 2.068382 -0.027234
v 0.027596 0.522005 -0.027372
v 0.027703 0.497683 -0.027696
v 0.027171 -0.007643 -0.027163
v 0.025595 -0.014993 -0.025587
v 0.023034 -0.021766 -0.023027
v 0.019589 -0.027703 -0.019582
v 0.015391 -0.032576 -0.015384
v 0.010602 -0.036196 -0.010594
v 0.005405 -0.038426 -0.005397
v 0.000000 -0.039178 0.000008
v 0.019243 2.070347 -0.028768
v 0.019601 2.070151 -0.029304
v 0.019931 2.069834 -0.029798
v 0.020220 2.069407 -0.030230
v 0.020457 2.068886 -0.030585
v 0.020633 2.040278 -0.023277
v 0.020742 0.521916 -0.031012
v 0.021766 0.497683 -0.032568
v 0.021348 -0.007643 -0.031942
v 0.020110 -0.014993 -0.030088
v 0.018098 -0.021766 -0.027078
v 0.015391 -0.027703 -0.023027
v 0.012093 -0.032576 -0.018091
v 0.008330 -0.036196 -0.012459
v 0.004246 -0.038426 -0.006348
v 0.012875 2.070347 -0.028830
v 0.013122 2.070151 -0.029425
v 0.013349 2.069834 -0.029974
v 0.013548 2.069407 -0.030455
v 0.013712 2.068886 -0.030849
v 0.013833 2.040314 -0.023568
v 0.013908 0.521916 -0.031323
v 0.014993 0.497683 -0.036189
v 0.014705 -0.007643 -0.035493
v 0.013852 -0.014993 -0.033433
v 0.012466 -0.021766 -0.030088
v 0.010602 -0.027703 -0.025587
v 0.008330 -0.032576 -0.020102
v 0.005738 -0.036196 -0.013844
v 0.002925 -0.038426 -0.007054
v 0.006303 2.070347 -0.028868
v 0.006429 2.070151 -0.029500
v 0.006544 2.069834 -0.030082
v 0.006646 2.069407 -0.030593
v 0.006729 2.068886 -0.031012
v 0.006791 2.040335 -0.023747
v 0.006829 0.521916 -0.031515
v 0.007643 0.497683 -0.038418
v 0.007496 -0.007643 -0.037680
v 0.007062 -0.014993 -0.035493
v 0.006355 -0.021766 -0.031942
v 0.005405 -0.027703 -0.027163
v 0.004246 -0.032576 -0.021341
v 0.002925 -0.036196 -0.014697
v 0.001491 -0.038426 -0.007489
v 0.000000 2.070347 -0.028881
v 0.000000 2.070151 -0.029525
v 0.000000 2.069834 -0.030119
v 0.000000 2.069407 -0.030640
v 0.000000 2.068886 -0.031067
v 0.000000 2.040343 -0.023807
v 0.000000 0.521916 -0.031579
v -0.000000 0.497683 -0.039171
v -0.000000 -0.007643 -0.038418
v 0.000000 -0.014993 -0.036189
v -0.000000 -0.021766 -0.032568
v 0.000000 -0.027703 -0.027696
v 0.000000 -0.032576 -0.021759
v 0.000000 -0.036196 -0.014985
v 0.000000 -0.038426 -0.007636
v 0.031424 1.810563 0.000008
v 0.031457 1.552834 0.000008
v 0.031489 1.295104 0.000008
v 0.031522 1.037375 0.000008
v 0.031554 0.779645 0.000008
v 0.031363 1.810563 -0.006204
v 0.031394 1.552834 -0.006210
v 0.031426 1.295104 -0.006217
v 0.031458 1.037375 -0.006223
v 0.031490 0.779645 -0.006229
v 0.031180 1.810563 -0.013797
v 0.031210 1.552834 -0.013810
v 0.031240 1.295104 -0.013822
v 0.031270 1.037375 -0.013835
v 0.031301 0.779645 -0.013847
v 0.030884 1.810563 -0.020552
v 0.030911 1.552834 -0.020570
v 0.030938 1.295104 -0.020589
v 0.030965 1.037375 -0.020607
v 0.030992 0.779645 -0.020625
v 0.027481 1.810653 -0.027257
v 0.027504 1.552923 -0.027280
v 0.027527 1.295194 -0.027303
v 0.027550 1.037464 -0.027326
v 0.027573 0.779734 -0.027349
v 0.020651 1.920513 -0.018311
v 0.020670 1.552834 -0.030903
v 0.020688 1.295104 -0.030931
v 0.020706 1.037375 -0.030958
v 0.020724 0.779645 -0.030985
v 0.013846 1.920548 -0.018605
v 0.013858 1.552834 -0.031203
v 0.013871 1.295104 -0.031233
v 0.013883 1.037375 -0.031263
v 0.013896 0.779645 -0.031293
v 0.006798 1.920570 -0.018786
v 0.006804 1.552834 -0.031387
v 0.006810 1.295104 -0.031419
v 0.006817 1.037375 -0.031451
v 0.006823 0.779645 -0.031483
v 0.000000 1.920577 -0.018847
v 0.000000 1.552834 -0.031449
v 0.000000 1.295104 -0.031482
v 0.000000 1.037375 -0.031514
v 0.000000 0.779645 -0.031547
v 0.013833 2.068812 -0.480453
v 0.020633 2.069078 -0.480331
v 0.006791 2.068648 -0.480529
v -0.000000 2.068592 -0.480555
v 0.020651 1.984104 -0.369195
v 0.013846 1.983834 -0.369319
v 0.006798 1.983669 -0.369395
v -0.000000 1.983613 -0.369421
v 0.013833 2.068812 -0.480453
v 0.020633 2.069078 -0.480331
v 0.006791 2.068648 -0.480529
v -0.000000 2.068592 -0.480555
v 0.020651 1.984104 -0.369195
v 0.013846 1.983834 -0.369319
v 0.006798 1.983669 -0.369395
v -0.000000 1.983613 -0.369421
v 0.013833 1.872350 -0.782582
v 0.020633 1.872501 -0.782331
v 0.006791 1.872256 -0.782737
v -0.000000 1.872225 -0.782789
v 0.020651 1.871319 -0.782066
v 0.013846 1.871166 -0.782319
v 0.006798 1.871072 -0.782476
v -0.000000 1.871040 -0.782528
v -0.000021 2.070413 -0.000000
v -0.028910 2.070347 -0.000000
v -0.029554 2.070151 -0.000000
v -0.030148 2.069834 -0.000000
v -0.030668 2.069407 -0.000000
v -0.031096 2.068886 -0.000000
v -0.031413 2.068293 -0.000000
v -0.031608 0.521916 -0.000000
v -0.039200 0.497683 0.000000
v -0.038447 -0.007643 0.000000
v -0.036218 -0.014993 -0.000000
v -0.032597 -0.021766 -0.000000
v -0.027725 -0.027703 -0.000000
v -0.021788 -0.032576 -0.000000
v -0.015014 -0.036196 -0.000000
v -0.007665 -0.038426 -0.000000
v -0.028897 2.070347 0.005717
v -0.029529 2.070151 0.005843
v -0.030111 2.069834 0.005958
v -0.030622 2.069407 0.006060
v -0.031041 2.068886 0.006143
v -0.031352 2.068293 0.006205
v -0.031544 0.521916 0.006243
v -0.038447 0.497683 0.007643
v -0.037709 -0.007643 0.007496
v -0.035522 -0.014993 0.007062
v -0.031971 -0.021766 0.006355
v -0.027192 -0.027703 0.005405
v -0.021369 -0.032576 0.004246
v -0.014726 -0.036196 0.002925
v -0.007518 -0.038426 0.001491
v -0.028859 2.070347 0.012835
v -0.029454 2.070151 0.013081
v -0.030003 2.069834 0.013308
v -0.030484 2.069407 0.013508
v -0.030878 2.068886 0.013671
v -0.031171 2.068293 0.013792
v -0.031352 0.521916 0.013867
v -0.036217 0.497683 0.014993
v -0.035522 -0.007643 0.014705
v -0.033462 -0.014993 0.013852
v -0.030117 -0.021766 0.012466
v -0.025616 -0.027703 0.010602
v -0.020131 -0.032576 0.008330
v -0.013873 -0.036196 0.005738
v -0.007083 -0.038426 0.002925
v -0.028797 2.070347 0.019151
v -0.029333 2.070151 0.019509
v -0.029826 2.069834 0.019839
v -0.030259 2.069407 0.020128
v -0.030614 2.068886 0.020365
v -0.030878 2.068293 0.020542
v -0.031041 0.521916 0.020650
v -0.032597 0.497683 0.021766
v -0.031971 -0.007643 0.021348
v -0.030117 -0.014993 0.020109
v -0.027107 -0.021766 0.018098
v -0.023056 -0.027703 0.015391
v -0.018119 -0.032576 0.012093
v -0.012488 -0.036196 0.008330
v -0.006377 -0.038426 0.004246
v -0.025709 2.070436 0.025471
v -0.026165 2.070240 0.025927
v -0.026585 2.069923 0.026347
v -0.026953 2.069496 0.026715
v -0.027255 2.068976 0.027017
v -0.027479 2.068382 0.027241
v -0.027617 0.522005 0.027379
v -0.027725 0.497683 0.027703
v -0.027192 -0.007643 0.027171
v -0.025616 -0.014993 0.025595
v -0.023056 -0.021766 0.023034
v -0.019611 -0.027703 0.019589
v -0.015412 -0.032576 0.015391
v -0.010623 -0.036196 0.010602
v -0.005426 -0.038426 0.005405
v -0.000021 -0.039178 -0.000000
v -0.019264 2.070347 0.028776
v -0.019622 2.070151 0.029311
v -0.019952 2.069834 0.029805
v -0.020241 2.069407 0.030238
v -0.020478 2.068886 0.030593
v -0.020655 2.040278 0.023284
v -0.020763 0.521916 0.031019
v -0.021788 0.497683 0.032576
v -0.021369 -0.007643 0.031950
v -0.020131 -0.014993 0.030096
v -0.018119 -0.021766 0.027086
v -0.015413 -0.027703 0.023034
v -0.012114 -0.032576 0.018098
v -0.008351 -0.036196 0.012466
v -0.004268 -0.038426 0.006355
v -0.012897 2.070347 0.028838
v -0.013143 2.070151 0.029433
v -0.013370 2.069834 0.029981
v -0.013570 2.069407 0.030462
v -0.013733 2.068886 0.030857
v -0.013855 2.040314 0.023575
v -0.013929 0.521916 0.031331
v -0.015014 0.497683 0.036196
v -0.014726 -0.007643 0.035501
v -0.013873 -0.014993 0.033441
v -0.012488 -0.021766 0.030096
v -0.010623 -0.027703 0.025595
v -0.008351 -0.032576 0.020109
v -0.005759 -0.036196 0.013852
v -0.002946 -0.038426 0.007062
v -0.006324 2.070347 0.028876
v -0.006450 2.070151 0.029508
v -0.006566 2.069834 0.030090
v -0.006667 2.069407 0.030600
v -0.006751 2.068886 0.031019
v -0.006813 2.040335 0.023754
v -0.006851 0.521916 0.031522
v -0.007665 0.497683 0.038426
v -0.007518 -0.007643 0.037687
v -0.007083 -0.014993 0.035501
v -0.006377 -0.021766 0.031950
v -0.005426 -0.027703 0.027171
v -0.004268 -0.032576 0.021348
v -0.002946 -0.036196 0.014705
v -0.001512 -0.038426 0.007496
v -0.000021 2.070347 0.028889
v -0.000021 2.070151 0.029533
v -0.000021 2.069834 0.030127
v -0.000021 2.069407 0.030647
v -0.000021 2.068886 0.031074
v -0.000021 2.040343 0.023815
v -0.000021 0.521916 0.031587
v -0.000021 0.497683 0.039178
v -0.000021 -0.007643 0.038426
v -0.000021 -0.014993 0.036196
v -0.000021 -0.021766 0.032576
v -0.000021 -0.027703 0.027703
v -0.000021 -0.032576 0.021766
v -0.000021 -0.036196 0.014993
v -0.000021 -0.038426 0.007643
v -0.031445 1.810563 -0.000000
v -0.031478 1.552834 -0.000000
v -0.031511 1.295104 -0.000000
v -0.031543 1.037375 -0.000000
v -0.031576 0.779645 -0.000000
v -0.031384 1.810563 0.006212
v -0.031416 1.552834 0.006218
v -0.031448 1.295104 0.006224
v -0.031480 1.037375 0.006231
v -0.031512 0.779645 0.006237
v -0.031201 1.810563 0.013805
v -0.031232 1.552834 0.013817
v -0.031262 1.295104 0.013830
v -0.031292 1.037375 0.013842
v -0.031322 0.779645 0.013855
v -0.030905 1.810563 0.020560
v -0.030932 1.552834 0.020578
v -0.030959 1.295104 0.020596
v -0.030987 1.037375 0.020614
v -0.031014 0.779645 0.020632
v -0.027502 1.810653 0.027264
v -0.027525 1.552923 0.027287
v -0.027548 1.295194 0.027310
v -0.027571 1.037464 0.027333
v -0.027594 0.779734 0.027356
v -0.020673 1.920513 0.018318
v -0.020691 1.552834 0.030911
v -0.020709 1.295104 0.030938
v -0.020727 1.037375 0.030965
v -0.020745 0.779645 0.030992
v -0.013867 1.920548 0.018612
v -0.013879 1.552834 0.031210
v -0.013892 1.295104 0.031240
v -0.013904 1.037375 0.031270
v -0.013917 0.779645 0.031300
v -0.006819 1.920570 0.018793
v -0.006825 1.552834 0.031394
v -0.006832 1.295104 0.031426
v -0.006838 1.037375 0.031458
v -0.006844 0.779645 0.031490
v -0.000021 1.920577 0.018855
v -0.000021 1.552834 0.031457
v -0.000021 1.295104 0.031489
v -0.000021 1.037375 0.031522
v -0.000021 0.779645 0.031554
v -0.013854 2.068812 0.480461
v -0.020655 2.069078 0.480338
v -0.006813 2.068648 0.480537
v -0.000021 2.068592 0.480562
v -0.020673 1.984104 0.369203
v -0.013867 1.983834 0.369327
v -0.006819 1.983669 0.369403
v -0.000021 1.983613 0.369429
v -0.013854 2.068812 0.480461
v -0.020655 2.069078 0.480338
v -0.006813 2.068648 0.480537
v -0.000021 2.068592 0.480562
v -0.020673 1.984104 0.369203
v -0.013867 1.983834 0.369327
v -0.006819 1.983669 0.369403
v -0.000021 1.983613 0.369429
v -0.013854 1.872350 0.782590
v -0.020655 1.872501 0.782338
v -0.006813 1.872256 0.782744
v -0.000021 1.872225 0.782796
v -0.020673 1.871319 0.782073
v -0.013867 1.871166 0.782327
v -0.006819 1.871072 0.782483
v -0.000021 1.871040 0.782536
v -0.000033 2.070413 -0.000007
v -0.028922 2.070347 -0.000007
v -0.029566 2.070151 -0.000007
v -0.030160 2.069834 -0.000007
v -0.030680 2.069407 -0.000007
v -0.031107 2.068886 -0.000007
v -0.031425 2.068293 -0.000007
v -0.031620 0.521916 -0.000007
v -0.039212 0.497683 -0.000007
v -0.038459 -0.007643 -0.000007
v -0.036229 -0.014993 -0.000007
v -0.032609 -0.021766 -0.000007
v -0.027737 -0.027703 -0.000007
v -0.021800 -0.032576 -0.000007
v -0.015026 -0.036196 -0.000007
v -0.007677 -0.038426 -0.000007
v -0.028909 2.070347 -0.005724
v -0.029541 2.070151 -0.005850
v -0.030123 2.069834 -0.005966
v -0.030634 2.069407 -0.006067
v -0.031053 2.068886 -0.006151
v -0.031364 2.068293 -0.006212
v -0.031555 0.521916 -0.006251
v -0.038459 0.497683 -0.007651
v -0.037720 -0.007643 -0.007504
v -0.035534 -0.014993 -0.007069
v -0.031983 -0.021766 -0.006362
v -0.027204 -0.027703 -0.005412
v -0.021381 -0.032576 -0.004254
v -0.014738 -0.036196 -0.002932
v -0.007530 -0.038426 -0.001498
v -0.028871 2.070347 -0.012842
v -0.029466 2.070151 -0.013088
v -0.030015 2.069834 -0.013316
v -0.030495 2.069407 -0.013515
v -0.030890 2.068886 -0.013678
v -0.031183 2.068293 -0.013800
v -0.031364 0.521916 -0.013874
v -0.036229 0.497683 -0.015000
v -0.035534 -0.007643 -0.014712
v -0.033474 -0.014993 -0.013859
v -0.030129 -0.021766 -0.012473
v -0.025628 -0.027703 -0.010609
v -0.020143 -0.032576 -0.008337
v -0.013885 -0.036196 -0.005745
v -0.007095 -0.038426 -0.002932
v -0.028809 2.070347 -0.019159
v -0.029345 2.070151 -0.019516
v -0.029838 2.069834 -0.019846
v -0.030271 2.069407 -0.020135
v -0.030626 2.068886 -0.020373
v -0.030890 2.068293 -0.020549
v -0.031053 0.521916 -0.020658
v -0.032609 0.497683 -0.021774
v -0.031983 -0.007643 -0.021355
v -0.030129 -0.014993 -0.020117
v -0.027119 -0.021766 -0.018105
v -0.023068 -0.027703 -0.015398
v -0.018131 -0.032576 -0.012100
v -0.012499 -0.036196 -0.008337
v -0.006388 -0.038426 -0.004254
v -0.025721 2.070436 -0.025479
v -0.026177 2.070240 -0.025934
v -0.026596 2.069923 -0.026354
v -0.026964 2.069496 -0.026722
v -0.027266 2.068976 -0.027024
v -0.027491 2.068382 -0.027248
v -0.027629 0.522005 -0.027387
v -0.027737 0.497683 -0.027711
v -0.027204 -0.007643 -0.027178
v -0.025628 -0.014993 -0.025602
v -0.023068 -0.021766 -0.023042
v -0.019622 -0.027703 -0.019596
v -0.015424 -0.032576 -0.015398
v -0.010635 -0.036196 -0.010609
v -0.005438 -0.038426 -0.005412
v -0.000033 -0.039178 -0.000007
v -0.019276 2.070347 -0.028783
v -0.019634 2.070151 -0.029319
v -0.019964 2.069834 -0.029812
v -0.020253 2.069407 -0.030245
v -0.020490 2.068886 -0.030600
v -0.020667 2.040278 -0.023291
v -0.020775 0.521916 -0.031027
v -0.021800 0.497683 -0.032583
v -0.021381 -0.007643 -0.031957
v -0.020143 -0.014993 -0.030103
v -0.018131 -0.021766 -0.027093
v -0.015424 -0.027703 -0.023042
v -0.012126 -0.032576 -0.018105
v -0.008363 -0.036196 -0.012473
v -0.004280 -0.038426 -0.006362
v -0.012909 2.070347 -0.028845
v -0.013155 2.070151 -0.029440
v -0.013382 2.069834 -0.029989
v -0.013581 2.069407 -0.030469
v -0.013745 2.068886 -0.030864
v -0.013866 2.040314 -0.023582
v -0.013941 0.521916 -0.031338
v -0.015026 0.497683 -0.036203
v -0.014738 -0.007643 -0.035508
v -0.013885 -0.014993 -0.033448
v -0.012499 -0.021766 -0.030103
v -0.010635 -0.027703 -0.025602
v -0.008363 -0.032576 -0.020117
v -0.005771 -0.036196 -0.013859
v -0.002958 -0.038426 -0.007069
v -0.006336 2.070347 -0.028883
v -0.006462 2.070151 -0.029515
v -0.006578 2.069834 -0.030097
v -0.006679 2.069407 -0.030608
v -0.006763 2.068886 -0.031027
v -0.006824 2.040335 -0.023762
v -0.006863 0.521916 -0.031529
v -0.007677 0.497683 -0.038433
v -0.007530 -0.007643 -0.037695
v -0.007095 -0.014993 -0.035508
v -0.006388 -0.021766 -0.031957
v -0.005438 -0.027703 -0.027178
v -0.004280 -0.032576 -0.021355
v -0.002958 -0.036196 -0.014712
v -0.001524 -0.038426 -0.007504
v -0.000033 2.070347 -0.028896
v -0.000033 2.070151 -0.029540
v -0.000033 2.069834 -0.030134
v -0.000033 2.069407 -0.030654
v -0.000033 2.068886 -0.031081
v -0.000033 2.040343 -0.023822
v -0.000033 0.521916 -0.031594
v -0.000033 0.497683 -0.039186
v -0.000033 -0.007643 -0.038433
v -0.000033 -0.014993 -0.036203
v -0.000033 -0.021766 -0.032583
v -0.000033 -0.027703 -0.027711
v -0.000033 -0.032576 -0.021774
v -0.000033 -0.036196 -0.015000
v -0.000033 -0.038426 -0.007651
v -0.031457 1.810563 -0.000007
v -0.031490 1.552834 -0.000007
v -0.031523 1.295104 -0.000007
v -0.031555 1.037375 -0.000007
v -0.031588 0.779645 -0.000007
v -0.031396 1.810563 -0.006219
v -0.031428 1.552834 -0.006225
v -0.031460 1.295104 -0.006231
v -0.031492 1.037375 -0.006238
v -0.031524 0.779645 -0.006244
v -0.031213 1.810563 -0.013812
v -0.031243 1.552834 -0.013825
v -0.031274 1.295104 -0.013837
v -0.031304 1.037375 -0.013850
v -0.031334 0.779645 -0.013862
v -0.030917 1.810563 -0.020567
v -0.030944 1.552834 -0.020585
v -0.030971 1.295104 -0.020603
v -0.030998 1.037375 -0.020621
v -0.031025 0.779645 -0.020640
v -0.027514 1.810653 -0.027271
v -0.027537 1.552923 -0.027294
v -0.027560 1.295194 -0.027318
v -0.027583 1.037464 -0.027341
v -0.027606 0.779734 -0.027364
v -0.020685 1.920513 -0.018325
v -0.020703 1.552834 -0.030918
v -0.020721 1.295104 -0.030945
v -0.020739 1.037375 -0.030972
v -0.020757 0.779645 -0.030999
v -0.013879 1.920548 -0.018620
v -0.013891 1.552834 -0.031217
v -0.013904 1.295104 -0.031248
v -0.013916 1.037375 -0.031278
v -0.013929 0.779645 -0.031308
v -0.006831 1.920570 -0.018801
v -0.006837 1.552834 -0.031402
v -0.006844 1.295104 -0.031434
v -0.006850 1.037375 -0.031466
v -0.006856 0.779645 -0.031498
v -0.000033 1.920577 -0.018862
v -0.000033 1.552834 -0.031464
v -0.000033 1.295104 -0.031496
v -0.000033 1.037375 -0.031529
v -0.000033 0.779645 -0.031562
v -0.013866 2.068812 -0.480468
v -0.020667 2.069078 -0.480345
v -0.006824 2.068648 -0.480544
v -0.000033 2.068592 -0.480569
v -0.020685 1.984104 -0.369210
v -0.013879 1.983834 -0.369334
v -0.006831 1.983669 -0.369410
v -0.000033 1.983613 -0.369436
v -0.013866 2.068812 -0.480468
v -0.020667 2.069078 -0.480345
v -0.006824 2.068648 -0.480544
v -0.000033 2.068592 -0.480569
v -0.020685 1.984104 -0.369210
v -0.013879 1.983834 -0.369334
v -0.006831 1.983669 -0.369410
v -0.000033 1.983613 -0.369436
v -0.013866 1.872350 -0.782597
v -0.020667 1.872501 -0.782346
v -0.006824 1.872256 -0.782751
v -0.000033 1.872225 -0.782804
v -0.020685 1.871319 -0.782080
v -0.013879 1.871166 -0.782334
v -0.006831 1.871072 -0.782490
v -0.000033 1.871040 -0.782543
vn 0.2902 -0.9565 0.0286
vn 0.9561 0.2876 0.0563
vn 0.0023 1.0000 -0.0000
vn 0.0980 -0.9951 0.0097
vn 0.9952 -0.0015 0.0980
vn 0.2928 0.9562 0.0010
vn 0.9527 -0.2890 0.0938
vn 0.4745 0.8803 0.0025
vn 0.8786 -0.4696 0.0865
vn 0.6378 0.7702 0.0044
vn 0.7708 -0.6326 0.0759
vn 0.7758 0.6309 0.0065
vn 0.6332 -0.7715 0.0624
vn 0.8835 0.4684 0.0083
vn 0.4709 -0.8810 0.0464
vn 1.0000 0.0001 0.0099
vn 0.6509 0.7591 0.0108
vn 0.7412 -0.6326 0.2248
vn 0.7861 0.6179 0.0158
vn 0.6088 -0.7715 0.1847
vn 0.8897 0.4562 0.0202
vn 0.4528 -0.8810 0.1374
vn 0.9997 0.0001 0.0239
vn 0.2790 -0.9565 0.0846
vn 0.9581 0.2407 0.1549
vn 0.0942 -0.9951 0.0286
vn 0.9569 -0.0015 0.2903
vn 0.3029 0.9530 0.0024
vn 0.9161 -0.2890 0.2779
vn 0.4878 0.8730 0.0062
vn 0.8448 -0.4696 0.2563
vn 0.9511 0.1388 0.2759
vn 0.0023 1.0000 0.0001
vn 0.0869 -0.9951 0.0464
vn 0.8819 -0.0015 0.4714
vn 0.3245 0.9459 0.0047
vn 0.8443 -0.2890 0.4513
vn 0.5152 0.8570 0.0118
vn 0.7786 -0.4696 0.4162
vn 0.6770 0.7357 0.0206
vn 0.6831 -0.6326 0.3651
vn 0.8057 0.5916 0.0295
vn 0.5611 -0.7715 0.2999
vn 0.9010 0.4322 0.0373
vn 0.4173 -0.8810 0.2230
vn 0.9990 0.0001 0.0436
vn 0.2571 -0.9565 0.1374
vn 0.5987 -0.6326 0.4913
vn 0.7025 0.6224 0.3453
vn 0.4918 -0.7715 0.4036
vn 0.7944 0.4605 0.3961
vn 0.3658 -0.8810 0.3002
vn 0.8917 0.0001 0.4526
vn 0.2254 -0.9565 0.1850
vn 0.8358 0.0449 0.5471
vn 0.0088 0.9999 -0.0098
vn 0.0761 -0.9951 0.0625
vn 0.7730 -0.0015 0.6344
vn 0.2759 0.9534 0.1220
vn 0.7400 -0.2890 0.6073
vn 0.4388 0.8748 0.2055
vn 0.6825 -0.4696 0.5601
vn 0.5829 0.7624 0.2811
vn 0.0625 -0.9951 0.0761
vn 0.6344 -0.0015 0.7730
vn 0.1270 0.9538 0.2723
vn 0.6073 -0.2890 0.7400
vn 0.2131 0.8757 0.4332
vn 0.5601 -0.4696 0.6825
vn 0.2912 0.7638 0.5760
vn 0.4913 -0.6326 0.5987
vn 0.3575 0.6238 0.6950
vn 0.4036 -0.7715 0.4918
vn 0.4099 -0.2097 0.8877
vn 0.3002 -0.8810 0.3658
vn -0.7155 -0.0092 0.6986
vn 0.1850 -0.9565 0.2254
vn 0.5532 0.0451 0.8318
vn -0.0094 0.9999 0.0086
vn 0.2999 -0.7715 0.5611
vn 0.0390 -0.2469 0.9683
vn 0.2230 -0.8810 0.4173
vn 1.0000 0.0002 -0.0000
vn 0.1374 -0.9565 0.2571
vn 0.2749 0.1380 0.9515
vn -0.0000 1.0000 0.0023
vn 0.0464 -0.9951 0.0869
vn 0.4714 -0.0015 0.8819
vn 0.0046 0.9459 0.3245
vn 0.4513 -0.2890 0.8443
vn 0.0117 0.8568 0.5154
vn 0.4162 -0.4696 0.7786
vn 0.0205 0.7358 0.6769
vn 0.3651 -0.6326 0.6831
vn 0.0293 0.5915 0.8058
vn 0.0026 0.9531 0.3025
vn 0.2779 -0.2890 0.9161
vn 0.0066 0.8729 0.4878
vn 0.2563 -0.4696 0.8448
vn 0.0117 0.7592 0.6508
vn 0.2248 -0.6326 0.7412
vn 0.0170 0.6181 0.7859
vn 0.1847 -0.7715 0.6088
vn 0.0232 -0.2466 0.9688
vn 0.1374 -0.8810 0.4528
vn 0.0046 -0.9842 0.1770
vn 0.0846 -0.9565 0.2790
vn 0.1607 0.2388 0.9577
vn 0.0286 -0.9951 0.0942
vn 0.2903 -0.0015 0.9569
vn 0.0081 -0.2465 0.9691
vn 0.0464 -0.8810 0.4709
vn -1.0000 -0.0000 -0.0000
vn 0.0286 -0.9565 0.2902
vn 0.0540 0.2869 0.9564
vn 0.0097 -0.9951 0.0980
vn 0.0980 -0.0015 0.9952
vn 0.0009 0.9563 0.2925
vn 0.0938 -0.2890 0.9527
vn 0.0023 0.8803 0.4744
vn 0.0865 -0.4696 0.8786
vn 0.0040 0.7701 0.6380
vn 0.0759 -0.6326 0.7708
vn 0.0059 0.6309 0.7758
vn 0.0624 -0.7715 0.6332
vn 0.0094 0.0001 1.0000
vn 0.0093 0.0001 1.0000
vn 0.0092 0.0001 1.0000
vn 0.0091 0.0342 0.9994
vn 0.0269 0.0001 0.9996
vn 0.0267 0.0001 0.9996
vn 0.0265 0.0001 0.9996
vn 0.0262 0.0001 0.9997
vn 0.0259 0.0342 0.9991
vn 0.0453 0.0001 0.9990
vn 0.0449 0.0001 0.9990
vn 0.0445 0.0001 0.9990
vn 0.0441 0.0001 0.9990
vn 0.0436 0.0342 0.9985
vn 0.4690 0.0001 0.8832
vn 0.4688 0.0001 0.8833
vn 0.4687 0.0001 0.8834
vn 0.4685 0.0001 0.8834
vn -0.2219 0.0197 0.9749
vn 0.8913 0.0001 0.4534
vn 0.8914 0.0001 0.4532
vn 0.8915 0.0001 0.4530
vn 0.8916 0.0001 0.4529
vn 0.8917 0.0001 0.4527
vn 0.9990 0.0001 0.0456
vn 0.9990 0.0001 0.0452
vn 0.9990 0.0001 0.0448
vn 0.9990 0.0001 0.0444
vn 0.9990 0.0001 0.0440
vn 0.9997 0.0001 0.0250
vn 0.9997 0.0001 0.0248
vn 0.9997 0.0001 0.0246
vn 0.9997 0.0001 0.0244
vn 0.9997 0.0001 0.0241
vn 0.9999 0.0001 0.0103
vn 0.9999 0.0001 0.0102
vn 0.9999 0.0001 0.0101
vn 1.0000 0.0001 0.0100
vn -0.0000 1.0000 -0.0000
vn -0.0039 0.9981 -0.0618
vn 0.0133 -0.9841 0.1773
vn 0.0223 -0.9838 0.1779
vn -0.0112 0.9980 -0.0621
vn -0.0188 0.9979 -0.0626
vn 0.0134 -0.9647 -0.2631
vn -0.0064 0.8384 0.5450
vn 1.0000 0.0003 0.0001
vn 0.0410 -0.2171 0.9753
vn 0.0244 -0.2157 0.9762
vn 0.0085 -0.2149 0.9766
vn -0.0022 0.8385 0.5449
vn -0.0107 0.8382 0.5453
vn 0.0226 -0.9645 -0.2633
vn 0.0047 -0.9648 -0.2629
vn -0.2902 0.9565 0.0286
vn -0.9561 -0.2876 0.0563
vn -0.0023 -1.0000 -0.0000
vn -0.0980 0.9951 0.0097
vn -0.9952 0.0015 0.0980
vn -0.2928 -0.9562 0.0010
vn -0.9527 0.2890 0.0938
vn -0.4745 -0.8803 0.0025
vn -0.8786 0.4696 0.0865
vn -0.6378 -0.7702 0.0044
vn -0.7708 0.6326 0.0759
vn -0.7758 -0.6309 0.0065
vn -0.6332 0.7715 0.0624
vn -0.8835 -0.4684 0.0083
vn -0.4709 0.8810 0.0464
vn -1.0000 -0.0001 0.0099
vn -0.6509 -0.7591 0.0108
vn -0.7412 0.6326 0.2248
vn -0.7861 -0.6179 0.0158
vn -0.6088 0.7715 0.1847
vn -0.8897 -0.4562 0.0202
vn -0.4528 0.8810 0.1374
vn -0.9997 -0.0001 0.0239
vn -0.2790 0.9565 0.0846
vn -0.9581 -0.2407 0.1549
vn -0.0942 0.9951 0.0286
vn -0.9569 0.0015 0.2903
vn -0.3029 -0.9530 0.0024
vn -0.9161 0.2890 0.2779
vn -0.4878 -0.8730 0.0062
vn -0.8448 0.4696 0.2563
vn -0.9511 -0.1388 0.2759
vn -0.0023 -1.0000 0.0001
vn -0.0869 0.9951 0.0464
vn -0.8819 0.0015 0.4714
vn -0.3245 -0.9459 0.0047
vn -0.8443 0.2890 0.4513
vn -0.5152 -0.8570 0.0118
vn -0.7786 0.4696 0.4162
vn -0.6770 -0.7357 0.0206
vn -0.6831 0.6326 0.3651
vn -0.8057 -0.5916 0.0295
vn -0.5611 0.7715 0.2999
vn -0.9010 -0.4322 0.0373
vn -0.4173 0.8810 0.2230
vn -0.9990 -0.0001 0.0436
vn -0.2571 0.9565 0.1374
vn -0.5987 0.6326 0.4913
vn -0.7025 -0.6224 0.3453
vn -0.4918 0.7715 0.4036
vn -0.7944 -0.4605 0.3961
vn -0.3658 0.8810 0.3002
vn -0.8917 -0.0001 0.4526
vn -0.2254 0.9565 0.1850
vn -0.8358 -0.0449 0.5471
vn -0.0088 -0.9999 -0.0098
vn -0.0761 0.9951 0.0625
vn -0.7730 0.0015 0.6344
vn -0.2759 -0.9534 0.1220
vn -0.7400 0.2890 0.6073
vn -0.4388 -0.8748 0.2055
vn -0.6825 0.4696 0.5601
vn -0.5829 -0.7624 0.2811
vn -0.0625 0.9951 0.0761
vn -0.6344 0.0015 0.7730
vn -0.1270 -0.9538 0.2723
vn -0.6073 0.2890 0.7400
vn -0.2131 -0.8757 0.4332
vn -0.5601 0.4696 0.6825
vn -0.2912 -0.7638 0.5760
vn -0.4913 0.6326 0.5987
vn -0.3575 -0.6238 0.6950
vn -0.4036 0.7715 0.4918
vn -0.4099 0.2097 0.8877
vn -0.3002 0.8810 0.3658
vn 0.7154 0.0092 0.6986
vn -0.1850 0.9565 0.2254
vn -0.5532 -0.0451 0.8318
vn 0.0094 -0.9999 0.0086
vn -0.2999 0.7715 0.5611
vn -0.0390 0.2469 0.9683
vn -0.2230 0.8810 0.4173
vn -1.0000 -0.0002 -0.0000
vn -0.1374 0.9565 0.2571
vn -0.2749 -0.1380 0.9515
vn -0.0000 -1.0000 0.0023
vn -0.0464 0.9951 0.0869
vn -0.4714 0.0015 0.8819
vn -0.0046 -0.9459 0.3245
vn -0.4513 0.2890 0.8443
vn -0.0117 -0.8568 0.5154
vn -0.4162 0.4696 0.7786
vn -0.0205 -0.7358 0.6769
vn -0.3651 0.6326 0.6831
vn -0.0293 -0.5915 0.8058
vn -0.0026 -0.9531 0.3025
vn -0.2779 0.2890 0.9161
vn -0.0066 -0.8729 0.4878
vn -0.2563 0.4696 0.8448
vn -0.0117 -0.7592 0.6508
vn -0.2248 0.6326 0.7412
vn -0.0170 -0.6181 0.7859
vn -0.1847 0.7715 0.6088
vn -0.0232 0.2466 0.9688
vn -0.1374 0.8810 0.4528
vn -0.0046 0.9842 0.1770
vn -0.0846 0.9565 0.2790
vn -0.1607 -0.2388 0.9577
vn -0.0286 0.9951 0.0942
vn -0.2903 0.0015 0.9569
vn -0.0081 0.2465 0.9691
vn -0.0464 0.8810 0.4709
vn 1.0000 -0.0000 -0.0000
vn -0.0286 0.9565 0.2902
vn -0.0540 -0.2869 0.9564
vn -0.0097 0.9951 0.0980
vn -0.0980 0.0015 0.9952
vn -0.0009 -0.9563 0.2925
vn -0.0938 0.2890 0.9527
vn -0.0023 -0.8803 0.4744
vn -0.0865 0.4696 0.8786
vn -0.0040 -0.7701 0.6380
vn -0.0759 0.6326 0.7708
vn -0.0059 -0.6309 0.7758
vn -0.0624 0.7715 0.6332
vn -0.0094 -0.0001 1.0000
vn -0.0093 -0.0001 1.0000
vn -0.0092 -0.0001 1.0000
vn -0.0091 -0.0342 0.9994
vn -0.0269 -0.0001 0.9996
vn -0.0267 -0.0001 0.9996
vn -0.0265 -0.0001 0.9996
vn -0.0262 -0.0001 0.9997
vn -0.0259 -0.0342 0.9991
vn -0.0453 -0.0001 0.9990
vn -0.0449 -0.0001 0.9990
vn -0.0445 -0.0001 0.9990
vn -0.0441 -0.0001 0.9990
vn -0.0436 -0.0342 0.9985
vn -0.4690 -0.0001 0.8832
vn -0.4688 -0.0001 0.8833
vn -0.4687 -0.0001 0.8834
vn -0.4685 -0.0001 0.8834
vn 0.2219 -0.0197 0.9749
vn -0.8913 -0.0001 0.4534
vn -0.8914 -0.0001 0.4532
vn -0.8915 -0.0001 0.4530
vn -0.8916 -0.0001 0.4529
vn -0.8917 -0.0001 0.4527
vn -0.9990 -0.0001 0.0456
vn -0.9990 -0.0001 0.0452
vn -0.9990 -0.0001 0.0448
vn -0.9990 -0.0001 0.0444
vn -0.9990 -0.0001 0.0440
vn -0.9997 -0.0001 0.0250
vn -0.9997 -0.0001 0.0248
vn -0.9997 -0.0001 0.0246
vn -0.9997 -0.0001 0.0244
vn -0.9997 -0.0001 0.0241
vn -0.9999 -0.0001 0.0103
vn -0.9999 -0.0001 0.0102
vn -0.9999 -0.0001 0.0101
vn -1.0000 -0.0001 0.0100
vn 0.0039 -0.9981 -0.0618
vn -0.0133 0.9841 0.1773
vn -0.0223 0.9838 0.1779
vn 0.0112 -0.9980 -0.0621
vn 0.0188 -0.9979 -0.0626
vn -0.0134 0.9647 -0.2631
vn 0.0064 -0.8384 0.5450
vn -1.0000 -0.0003 0.0001
vn -0.0410 0.2171 0.9753
vn -0.0244 0.2157 0.9762
vn -0.0085 0.2149 0.9766
vn 0.0022 -0.8385 0.5449
vn 0.0107 -0.8382 0.5453
vn -0.0226 0.9645 -0.2633
vn -0.0047 0.9648 -0.2629
vn 0.2902 0.9565 -0.0286
vn 0.9561 -0.2876 -0.0563
vn 0.0023 -1.0000 -0.0000
vn 0.0980 0.9951 -0.0097
vn 0.9952 0.0015 -0.0980
vn 0.2929 -0.9562 -0.0010
vn 0.9527 0.2890 -0.0938
vn 0.4745 -0.8803 -0.0025
vn 0.8786 0.4696 -0.0865
vn 0.6378 -0.7702 -0.0044
vn 0.7708 0.6326 -0.0759
vn 0.7758 -0.6309 -0.0065
vn 0.6332 0.7715 -0.0624
vn 0.8835 -0.4684 -0.0083
vn 0.4709 0.8810 -0.0464
vn 1.0000 -0.0001 -0.0099
vn 0.6509 -0.7591 -0.0108
vn 0.7412 0.6326 -0.2248
vn 0.7861 -0.6179 -0.0158
vn 0.6088 0.7715 -0.1847
vn 0.8897 -0.4562 -0.0202
vn 0.4528 0.8810 -0.1374
vn 0.9997 -0.0001 -0.0239
vn 0.2790 0.9565 -0.0846
vn 0.9581 -0.2407 -0.1549
vn 0.0942 0.9951 -0.0286
vn 0.9569 0.0015 -0.2903
vn 0.3029 -0.9530 -0.0024
vn 0.9161 0.2890 -0.2779
vn 0.4878 -0.8730 -0.0062
vn 0.8448 0.4696 -0.2563
vn 0.9511 -0.1388 -0.2759
vn 0.0023 -1.0000 -0.0001
vn 0.0869 0.9951 -0.0464
vn 0.8819 0.0015 -0.4714
vn 0.3245 -0.9459 -0.0047
vn 0.8443 0.2890 -0.4513
vn 0.5152 -0.8570 -0.0118
vn 0.7786 0.4696 -0.4162
vn 0.6770 -0.7357 -0.0206
vn 0.6831 0.6326 -0.3651
vn 0.8057 -0.5916 -0.0295
vn 0.5611 0.7715 -0.2999
vn 0.9010 -0.4322 -0.0373
vn 0.4173 0.8810 -0.2230
vn 0.9990 -0.0001 -0.0436
vn 0.2571 0.9565 -0.1374
vn 0.5987 0.6326 -0.4913
vn 0.7025 -0.6224 -0.3453
vn 0.4918 0.7715 -0.4036
vn 0.7944 -0.4605 -0.3961
vn 0.3658 0.8810 -0.3002
vn 0.8917 -0.0001 -0.4526
vn 0.2254 0.9565 -0.1850
vn 0.8358 -0.0449 -0.5471
vn 0.0088 -0.9999 0.0098
vn 0.0761 0.9951 -0.0625
vn 0.7730 0.0015 -0.6344
vn 0.2759 -0.9534 -0.1220
vn 0.7400 0.2890 -0.6073
vn 0.4388 -0.8748 -0.2055
vn 0.6825 0.4696 -0.5601
vn 0.5829 -0.7624 -0.2811
vn 0.0625 0.9951 -0.0761
vn 0.6344 0.0015 -0.7730
vn 0.1270 -0.9538 -0.2723
vn 0.6073 0.2890 -0.7400
vn 0.2131 -0.8757 -0.4332
vn 0.5601 0.4696 -0.6825
vn 0.2912 -0.7638 -0.5760
vn 0.4913 0.6326 -0.5987
vn 0.3575 -0.6238 -0.6950
vn 0.4036 0.7715 -0.4918
vn 0.4099 0.2097 -0.8877
vn 0.3002 0.8810 -0.3658
vn -0.7154 0.0092 -0.6986
vn 0.1850 0.9565 -0.2254
vn 0.5532 -0.0451 -0.8318
vn -0.0094 -0.9999 -0.0086
vn 0.2999 0.7715 -0.5611
vn 0.0390 0.2469 -0.9683
vn 0.2230 0.8810 -0.4173
vn 1.0000 -0.0002 -0.0000
vn 0.1374 0.9565 -0.2571
vn 0.2749 -0.1380 -0.9515
vn -0.0000 -1.0000 -0.0023
vn 0.0464 0.9951 -0.0869
vn 0.4714 0.0015 -0.8819
vn 0.0046 -0.9459 -0.3245
vn 0.4513 0.2890 -0.8443
vn 0.0117 -0.8568 -0.5154
vn 0.4162 0.4696 -0.7786
vn 0.0205 -0.7358 -0.6769
vn 0.3651 0.6326 -0.6831
vn 0.0293 -0.5915 -0.8058
vn 0.0026 -0.9531 -0.3025
vn 0.2779 0.2890 -0.9161
vn 0.0066 -0.8729 -0.4878
vn 0.2563 0.4696 -0.8448
vn 0.0117 -0.7592 -0.6508
vn 0.2248 0.6326 -0.7412
vn 0.0170 -0.6181 -0.7859
vn 0.1847 0.7715 -0.6088
vn 0.0232 0.2466 -0.9688
vn 0.1374 0.8810 -0.4528
vn 0.0046 0.9842 -0.1770
vn 0.0846 0.9565 -0.2790
vn 0.1607 -0.2388 -0.9577
vn 0.0286 0.9951 -0.0942
vn 0.2903 0.0015 -0.9569
vn 0.0081 0.2465 -0.9691
vn 0.0464 0.8810 -0.4709
vn 0.0286 0.9565 -0.2902
vn 0.0540 -0.2869 -0.9564
vn 0.0097 0.9951 -0.0980
vn 0.0980 0.0015 -0.9952
vn 0.0009 -0.9563 -0.2925
vn 0.0938 0.2890 -0.9527
vn 0.0023 -0.8803 -0.4744
vn 0.0865 0.4696 -0.8786
vn 0.0040 -0.7701 -0.6380
vn 0.0759 0.6326 -0.7708
vn 0.0059 -0.6309 -0.7758
vn 0.0624 0.7715 -0.6332
vn 0.0094 -0.0001 -1.0000
vn 0.0093 -0.0001 -1.0000
vn 0.0092 -0.0001 -1.0000
vn 0.0091 -0.0342 -0.9994
vn 0.0269 -0.0001 -0.9996
vn 0.0267 -0.0001 -0.9996
vn 0.0265 -0.0001 -0.9996
vn 0.0262 -0.0001 -0.9997
vn 0.0259 -0.0342 -0.9991
vn 0.0453 -0.0001 -0.9990
vn 0.0449 -0.0001 -0.9990
vn 0.0445 -0.0001 -0.9990
vn 0.0441 -0.0001 -0.9990
vn 0.0436 -0.0342 -0.9985
vn 0.4690 -0.0001 -0.8832
vn 0.4688 -0.0001 -0.8833
vn 0.4687 -0.0001 -0.8834
vn 0.4685 -0.0001 -0.8834
vn -0.2219 -0.0197 -0.9749
vn 0.8913 -0.0001 -0.4534
vn 0.8914 -0.0001 -0.4532
vn 0.8915 -0.0001 -0.4530
vn 0.8916 -0.0001 -0.4529
vn 0.8917 -0.0001 -0.4527
vn 0.9990 -0.0001 -0.0456
vn 0.9990 -0.0001 -0.0452
vn 0.9990 -0.0001 -0.0448
vn 0.9990 -0.0001 -0.0444
vn 0.9990 -0.0001 -0.0440
vn 0.9997 -0.0001 -0.0250
vn 0.9997 -0.0001 -0.0248
vn 0.9997 -0.0001 -0.0246
vn 0.9997 -0.0001 -0.0244
vn 0.9997 -0.0001 -0.0241
vn 0.9999 -0.0001 -0.0103
vn 0.9999 -0.0001 -0.0102
vn 0.9999 -0.0001 -0.0101
vn 1.0000 -0.0001 -0.0100
vn -0.0039 -0.9981 0.0618
vn 0.0133 0.9841 -0.1773
vn 0.0223 0.9838 -0.1779
vn -0.0112 -0.9980 0.0621
vn -0.0188 -0.9979 0.0626
vn 0.0134 0.9647 0.2631
vn -0.0064 -0.8384 -0.5450
vn 1.0000 -0.0003 -0.0001
vn 0.0410 0.2171 -0.9753
vn 0.0244 0.2156 -0.9762
vn 0.0085 0.2149 -0.9766
vn -0.0022 -0.8385 -0.5449
vn -0.0107 -0.8382 -0.5453
vn 0.0226 0.9645 0.2633
vn 0.0047 0.9648 0.2629
vn -0.2902 -0.9565 -0.0286
vn -0.9561 0.2876 -0.0563
vn -0.0023 1.0000 -0.0000
vn -0.0980 -0.9951 -0.0097
vn -0.9952 -0.0015 -0.0980
vn -0.2928 0.9562 -0.0010
vn -0.9527 -0.2890 -0.0938
vn -0.4745 0.8803 -0.0025
vn -0.8786 -0.4696 -0.0865
vn -0.6378 0.7702 -0.0044
vn -0.7708 -0.6326 -0.0759
vn -0.7758 0.6309 -0.0065
vn -0.6332 -0.7715 -0.0624
vn -0.8835 0.4684 -0.0083
vn -0.4709 -0.8810 -0.0464
vn -1.0000 0.0001 -0.0099
vn -0.6509 0.7591 -0.0109
vn -0.7412 -0.6326 -0.2248
vn -0.7861 0.6179 -0.0158
vn -0.6088 -0.7715 -0.1847
vn -0.8897 0.4562 -0.0202
vn -0.4528 -0.8810 -0.1374
vn -0.9997 0.0001 -0.0239
vn -0.2790 -0.9565 -0.0846
vn -0.9581 0.2407 -0.1549
vn -0.0942 -0.9951 -0.0286
vn -0.9569 -0.0015 -0.2903
vn -0.3029 0.9530 -0.0024
vn -0.9161 -0.2890 -0.2779
vn -0.4878 0.8730 -0.0061
vn -0.8448 -0.4696 -0.2563
vn -0.9511 0.1388 -0.2759
vn -0.0869 -0.9951 -0.0464
vn -0.8819 -0.0015 -0.4714
vn -0.3245 0.9459 -0.0047
vn -0.8443 -0.2890 -0.4513
vn -0.5152 0.8570 -0.0119
vn -0.7786 -0.4696 -0.4162
vn -0.6770 0.7357 -0.0206
vn -0.6831 -0.6326 -0.3651
vn -0.8057 0.5916 -0.0295
vn -0.5611 -0.7715 -0.2999
vn -0.9010 0.4322 -0.0373
vn -0.4173 -0.8810 -0.2230
vn -0.9990 0.0001 -0.0436
vn -0.2571 -0.9565 -0.1374
vn -0.5987 -0.6326 -0.4913
vn -0.7024 0.6223 -0.3454
vn -0.4918 -0.7715 -0.4036
vn -0.7944 0.4605 -0.3960
vn -0.3658 -0.8810 -0.3002
vn -0.8917 0.0001 -0.4526
vn -0.2254 -0.9565 -0.1850
vn -0.8358 0.0449 -0.5471
vn -0.0088 0.9999 0.0098
vn -0.0761 -0.9951 -0.0625
vn -0.7730 -0.0015 -0.6344
vn -0.2759 0.9534 -0.1222
vn -0.7400 -0.2890 -0.6073
vn -0.4388 0.8748 -0.2054
vn -0.6825 -0.4696 -0.5601
vn -0.5829 0.7623 -0.2812
vn -0.0625 -0.9951 -0.0761
vn -0.6344 -0.0015 -0.7730
vn -0.1270 0.9538 -0.2722
vn -0.6073 -0.2890 -0.7400
vn -0.2131 0.8757 -0.4332
vn -0.5601 -0.4696 -0.6825
vn -0.2912 0.7637 -0.5762
vn -0.4913 -0.6326 -0.5987
vn -0.3576 0.6240 -0.6948
vn -0.4036 -0.7715 -0.4918
vn -0.4099 -0.2097 -0.8877
vn -0.3002 -0.8810 -0.3658
vn 0.7154 -0.0092 -0.6986
vn -0.1850 -0.9565 -0.2254
vn -0.5532 0.0451 -0.8318
vn 0.0094 0.9999 -0.0086
vn -0.2999 -0.7715 -0.5611
vn -0.0390 -0.2469 -0.9683
vn -0.2230 -0.8810 -0.4173
vn -1.0000 0.0002 -0.0000
vn -0.1374 -0.9565 -0.2571
vn -0.2749 0.1380 -0.9515
vn -0.0000 1.0000 -0.0023
vn -0.0464 -0.9951 -0.0869
vn -0.4714 -0.0015 -0.8819
vn -0.0046 0.9459 -0.3245
vn -0.4513 -0.2890 -0.8443
vn -0.0117 0.8571 -0.5151
vn -0.4162 -0.4696 -0.7786
vn -0.0205 0.7356 -0.6771
vn -0.3651 -0.6326 -0.6831
vn -0.0293 0.5913 -0.8059
vn -0.0026 0.9530 -0.3029
vn -0.2779 -0.2890 -0.9161
vn -0.0066 0.8730 -0.4877
vn -0.2563 -0.4696 -0.8448
vn -0.0117 0.7592 -0.6507
vn -0.2248 -0.6326 -0.7412
vn -0.0170 0.6181 -0.7859
vn -0.1847 -0.7715 -0.6088
vn -0.0232 -0.2466 -0.9688
vn -0.1374 -0.8810 -0.4528
vn -0.0046 -0.9842 -0.1770
vn -0.0846 -0.9565 -0.2790
vn -0.1607 0.2388 -0.9577
vn -0.0286 -0.9951 -0.0942
vn -0.2903 -0.0015 -0.9569
vn -0.0081 -0.2465 -0.9691
vn -0.0464 -0.8810 -0.4709
vn -0.0286 -0.9565 -0.2902
vn -0.0540 0.2869 -0.9564
vn -0.0097 -0.9951 -0.0980
vn -0.0980 -0.0015 -0.9952
vn -0.0009 0.9563 -0.2925
vn -0.0938 -0.2890 -0.9527
vn -0.0023 0.8801 -0.4747
vn -0.0865 -0.4696 -0.8786
vn -0.0040 0.7702 -0.6378
vn -0.0759 -0.6326 -0.7708
vn -0.0059 0.6309 -0.7758
vn -0.0624 -0.7715 -0.6332
vn -0.0094 0.0001 -1.0000
vn -0.0093 0.0001 -1.0000
vn -0.0092 0.0001 -1.0000
vn -0.0091 0.0342 -0.9994
vn -0.0269 0.0001 -0.9996
vn -0.0267 0.0001 -0.9996
vn -0.0265 0.0001 -0.9996
vn -0.0262 0.0001 -0.9997
vn -0.0259 0.0342 -0.9991
vn -0.0453 0.0001 -0.9990
vn -0.0449 0.0001 -0.9990
vn -0.0445 0.0001 -0.9990
vn -0.0441 0.0001 -0.9990
vn -0.0436 0.0342 -0.9985
vn -0.4690 0.0001 -0.8832
vn -0.4688 0.0001 -0.8833
vn -0.4687 0.0001 -0.8834
vn -0.4685 0.0001 -0.8834
vn 0.2219 0.0197 -0.9749
vn -0.8913 0.0001 -0.4534
vn -0.8914 0.0001 -0.4532
vn -0.8915 0.0001 -0.4530
vn -0.8916 0.0001 -0.4529
vn -0.8917 0.0001 -0.4527
vn -0.9990 0.0001 -0.0456
vn -0.9990 0.0001 -0.0452
vn -0.9990 0.0001 -0.0448
vn -0.9990 0.0001 -0.0444
vn -0.9990 0.0001 -0.0440
vn -0.9997 0.0001 -0.0250
vn -0.9997 0.0001 -0.0248
vn -0.9997 0.0001 -0.0246
vn -0.9997 0.0001 -0.0244
vn -0.9997 0.0001 -0.0241
vn -0.9999 0.0001 -0.0103
vn -0.9999 0.0001 -0.0102
vn -0.9999 0.0001 -0.0101
vn -1.0000 0.0001 -0.0100
vn 0.0039 0.9981 0.0618
vn -0.0133 -0.9841 -0.1773
vn -0.0223 -0.9838 -0.1779
vn 0.0112 0.9980 0.0621
vn 0.0188 0.9979 0.0626
vn -0.0134 -0.9647 0.2631
vn 0.0064 0.8384 -0.5450
vn -1.0000 0.0003 -0.0001
vn -0.0410 -0.2171 -0.9753
vn -0.0244 -0.2156 -0.9762
vn -0.0085 -0.2149 -0.9766
vn 0.0022 0.8385 -0.5449
vn 0.0107 0.8382 -0.5453
vn -0.0226 -0.9645 0.2633
vn -0.0047 -0.9648 0.2629
vt 0.075892 0.006072
vt 0.080797 0.012237
vt 0.078308 0.013743
vt 0.074628 0.006990
vt 0.093241 0.441542
vt 0.091112 0.460388
vt 0.086560 0.460121
vt 0.087402 0.441330
vt 0.069560 0.997779
vt 0.069020 0.998147
vt 0.069473 0.997689
vt 0.070170 0.000086
vt 0.093486 0.045540
vt 0.087404 0.045943
vt 0.069586 0.997753
vt 0.069484 0.997668
vt 0.092670 0.038751
vt 0.086677 0.039738
vt 0.069609 0.997724
vt 0.069495 0.997648
vt 0.090945 0.031930
vt 0.085468 0.033402
vt 0.069627 0.997691
vt 0.069506 0.997629
vt 0.088359 0.025166
vt 0.083701 0.026930
vt 0.069641 0.997657
vt 0.069518 0.997609
vt 0.084967 0.018620
vt 0.081319 0.020404
vt 0.069650 0.997622
vt 0.069529 0.997590
vt 0.070014 0.992440
vt 0.069837 0.992385
vt 0.069382 0.997577
vt 0.069388 0.997566
vt 0.080246 0.034367
vt 0.079138 0.028103
vt 0.069394 0.997555
vt 0.077618 0.021618
vt 0.069400 0.997545
vt 0.075675 0.014806
vt 0.069619 0.992323
vt 0.073229 0.007662
vt 0.080935 0.459831
vt 0.081604 0.441271
vt 0.069371 0.997600
vt 0.081544 0.046303
vt 0.069376 0.997588
vt 0.081028 0.040410
vt 0.075857 0.459625
vt 0.075821 0.441256
vt 0.069289 0.997534
vt 0.071737 0.008074
vt 0.075824 0.046540
vt 0.069290 0.997528
vt 0.075560 0.040806
vt 0.069292 0.997521
vt 0.075174 0.034917
vt 0.069293 0.997515
vt 0.074643 0.028776
vt 0.069296 0.997510
vt 0.073895 0.022321
vt 0.069298 0.997504
vt 0.072954 0.015440
vt 0.069423 0.992269
vt 0.070169 0.035094
vt 0.070180 0.028997
vt 0.069179 0.997483
vt 0.069182 0.997480
vt 0.070166 0.022548
vt 0.069185 0.997477
vt 0.070191 0.015653
vt 0.069203 0.992218
vt 0.070199 0.008217
vt 0.070190 0.459652
vt 0.070044 0.441260
vt 0.069171 0.997492
vt 0.070170 0.046621
vt 0.069174 0.997489
vt 0.070172 0.040936
vt 0.069176 0.997486
vt 0.068657 0.008088
vt 0.064267 0.441246
vt 0.064516 0.046536
vt 0.069031 0.997479
vt 0.069032 0.997474
vt 0.064784 0.040805
vt 0.069032 0.997468
vt 0.065165 0.034911
vt 0.069032 0.997463
vt 0.065716 0.028780
vt 0.069032 0.997459
vt 0.066439 0.022311
vt 0.069019 0.996670
vt 0.067425 0.015448
vt 0.068963 0.995332
vt 0.064367 0.459613
vt 0.061218 0.028112
vt 0.062721 0.021597
vt 0.068912 0.997449
vt 0.068916 0.996724
vt 0.064698 0.014822
vt 0.066100 0.996632
vt 0.066567 0.996292
vt 0.067157 0.007688
vt 0.059252 0.459828
vt 0.058484 0.441269
vt 0.068918 0.997505
vt 0.058795 0.046295
vt 0.068917 0.997491
vt 0.059317 0.040410
vt 0.068916 0.997477
vt 0.060093 0.034354
vt 0.068914 0.997463
vt 0.068793 0.997542
vt 0.068789 0.997520
vt 0.052936 0.045932
vt 0.053668 0.039739
vt 0.068784 0.997498
vt 0.054874 0.033382
vt 0.068780 0.997476
vt 0.056650 0.026943
vt 0.068775 0.997454
vt 0.059027 0.020374
vt 0.068820 0.996760
vt 0.062055 0.013761
vt 0.068497 0.995368
vt 0.068649 0.995352
vt 0.066578 0.996356
vt 0.066625 0.996374
vt 0.065744 0.007023
vt 0.054017 0.460075
vt 0.052688 0.441311
vt 0.068627 0.997453
vt 0.068737 0.996777
vt 0.055388 0.018586
vt 0.059554 0.012253
vt 0.067983 0.994865
vt 0.066070 0.996424
vt 0.064465 0.006106
vt 0.049034 0.460371
vt 0.046853 0.441529
vt 0.068665 0.997597
vt 0.046853 0.045526
vt 0.068649 0.997564
vt 0.047674 0.038757
vt 0.068637 0.997528
vt 0.049401 0.031903
vt 0.068630 0.997491
vt 0.051985 0.025179
vt 0.055936 0.642485
vt 0.051473 0.642555
vt 0.058629 0.797462
vt 0.055031 0.797558
vt 0.062253 0.914520
vt 0.059803 0.914645
vt 0.066799 0.982972
vt 0.065781 0.983058
vt 0.060563 0.642433
vt 0.062359 0.797389
vt 0.064794 0.914426
vt 0.067857 0.982920
vt 0.068807 0.995341
vt 0.065033 0.642403
vt 0.065962 0.797346
vt 0.067248 0.914370
vt 0.068881 0.982906
vt 0.070105 0.642450
vt 0.070050 0.797377
vt 0.070033 0.914380
vt 0.070049 0.982857
vt 0.075039 0.642406
vt 0.074027 0.797348
vt 0.072741 0.914369
vt 0.071187 0.982831
vt 0.079476 0.642439
vt 0.077603 0.797391
vt 0.075177 0.914423
vt 0.072210 0.982860
vt 0.084460 0.642499
vt 0.081621 0.797471
vt 0.077914 0.914523
vt 0.073358 0.982944
vt 0.088539 0.642567
vt 0.084910 0.797562
vt 0.080153 0.914637
vt 0.074297 0.983050
vt 0.066107 0.996482
vt 0.066128 0.996386
vt 0.066118 0.996475
vt 0.066554 0.996402
vt 0.066560 0.996330
vt 0.066546 0.996336
vt 0.066564 0.996363
vt 0.066119 0.996553
vt 0.065490 0.996719
vt 0.065503 0.996751
vt 0.066134 0.996549
vt 0.065507 0.996748
vt 0.065496 0.996719
vt 0.066501 0.996319
vt 0.066181 0.996615
vt 0.065486 0.996692
vt 0.065478 0.996685
vt 0.065518 0.996775
vt 0.065517 0.996785
vt 0.169558 0.006093
vt 0.174481 0.012264
vt 0.171991 0.013775
vt 0.168291 0.007013
vt 0.186932 0.442325
vt 0.184792 0.461195
vt 0.180235 0.460926
vt 0.181085 0.442111
vt 0.163014 0.994269
vt 0.162444 0.994560
vt 0.162945 0.994175
vt 0.163840 0.000086
vt 0.187193 0.045621
vt 0.181101 0.046024
vt 0.163038 0.994243
vt 0.162956 0.994156
vt 0.186376 0.038820
vt 0.180374 0.039808
vt 0.163057 0.994214
vt 0.162966 0.994138
vt 0.184645 0.031960
vt 0.179159 0.033446
vt 0.163072 0.994184
vt 0.162977 0.994120
vt 0.182057 0.025216
vt 0.177379 0.026979
vt 0.163083 0.994151
vt 0.162988 0.994102
vt 0.178660 0.018649
vt 0.175006 0.020434
vt 0.163089 0.994119
vt 0.162999 0.994084
vt 0.163560 0.990388
vt 0.163419 0.990332
vt 0.162883 0.994060
vt 0.162891 0.994050
vt 0.173927 0.034424
vt 0.172807 0.028151
vt 0.162898 0.994041
vt 0.171292 0.021643
vt 0.162906 0.994032
vt 0.169345 0.014838
vt 0.163243 0.990268
vt 0.166887 0.007686
vt 0.174604 0.460635
vt 0.175279 0.442051
vt 0.162870 0.994080
vt 0.175230 0.046384
vt 0.162877 0.994070
vt 0.174713 0.040481
vt 0.169520 0.460428
vt 0.169487 0.442036
vt 0.162813 0.994009
vt 0.165384 0.008091
vt 0.169499 0.046622
vt 0.162817 0.994003
vt 0.169235 0.040878
vt 0.162821 0.993997
vt 0.168847 0.034981
vt 0.162825 0.993992
vt 0.168305 0.028832
vt 0.162830 0.993987
vt 0.167570 0.022354
vt 0.162836 0.993982
vt 0.166619 0.015467
vt 0.163085 0.990212
vt 0.163835 0.035157
vt 0.163833 0.029054
vt 0.162742 0.993944
vt 0.162751 0.993942
vt 0.163833 0.022590
vt 0.162761 0.993940
vt 0.163850 0.015676
vt 0.162908 0.990159
vt 0.163841 0.008225
vt 0.163847 0.460455
vt 0.163701 0.442039
vt 0.162715 0.993951
vt 0.163835 0.046703
vt 0.162724 0.993949
vt 0.163838 0.041009
vt 0.162733 0.993947
vt 0.162297 0.008093
vt 0.157917 0.442025
vt 0.158171 0.046618
vt 0.162573 0.993918
vt 0.162578 0.993915
vt 0.158441 0.040877
vt 0.162583 0.993911
vt 0.158823 0.034970
vt 0.162587 0.993908
vt 0.159368 0.028830
vt 0.162591 0.993905
vt 0.160096 0.022352
vt 0.162710 0.993246
vt 0.161078 0.015475
vt 0.162705 0.992641
vt 0.158019 0.460416
vt 0.154865 0.028162
vt 0.156371 0.021640
vt 0.162451 0.993873
vt 0.162605 0.993177
vt 0.158346 0.014842
vt 0.161837 0.993175
vt 0.161959 0.993089
vt 0.160801 0.007685
vt 0.152898 0.460632
vt 0.152125 0.442049
vt 0.162447 0.993924
vt 0.152440 0.046377
vt 0.162448 0.993911
vt 0.152963 0.040480
vt 0.162450 0.993898
vt 0.153741 0.034414
vt 0.162451 0.993886
vt 0.162306 0.993940
vt 0.162303 0.993917
vt 0.146571 0.046012
vt 0.147304 0.039808
vt 0.162300 0.993894
vt 0.148512 0.033440
vt 0.162296 0.993871
vt 0.150292 0.026990
vt 0.162293 0.993849
vt 0.152678 0.020410
vt 0.162490 0.993092
vt 0.155713 0.013773
vt 0.162402 0.992945
vt 0.162501 0.992841
vt 0.161989 0.993119
vt 0.162014 0.993133
vt 0.159398 0.007015
vt 0.147657 0.460879
vt 0.146321 0.442091
vt 0.162116 0.993817
vt 0.162369 0.992992
vt 0.149029 0.018617
vt 0.153204 0.012263
vt 0.161886 0.993104
vt 0.158119 0.006097
vt 0.142669 0.461177
vt 0.140477 0.442311
vt 0.162166 0.993977
vt 0.140477 0.045606
vt 0.162146 0.993941
vt 0.141300 0.038824
vt 0.162131 0.993902
vt 0.143029 0.031958
vt 0.162121 0.993860
vt 0.145618 0.025222
vt 0.149595 0.643402
vt 0.145132 0.643473
vt 0.152317 0.798239
vt 0.148727 0.798337
vt 0.155983 0.914823
vt 0.153551 0.914949
vt 0.160587 0.982382
vt 0.159598 0.982470
vt 0.154222 0.643350
vt 0.156038 0.798166
vt 0.158505 0.914728
vt 0.161615 0.982329
vt 0.162604 0.992739
vt 0.158691 0.643319
vt 0.159634 0.798122
vt 0.160941 0.914671
vt 0.162610 0.982314
vt 0.163763 0.643366
vt 0.163712 0.798153
vt 0.163705 0.914680
vt 0.163743 0.982262
vt 0.168696 0.643322
vt 0.167680 0.798123
vt 0.166394 0.914669
vt 0.164846 0.982237
vt 0.173132 0.643356
vt 0.171249 0.798167
vt 0.168812 0.914723
vt 0.165838 0.982266
vt 0.178116 0.643416
vt 0.175257 0.798248
vt 0.171528 0.914824
vt 0.166952 0.982350
vt 0.182195 0.643484
vt 0.178538 0.798339
vt 0.173751 0.914939
vt 0.167863 0.982455
vt 0.161875 0.993126
vt 0.161893 0.993100
vt 0.161877 0.993124
vt 0.161993 0.993134
vt 0.161972 0.993106
vt 0.161970 0.993108
vt 0.161985 0.993120
vt 0.161861 0.993149
vt 0.161681 0.993161
vt 0.161683 0.993168
vt 0.161865 0.993147
vt 0.161684 0.993168
vt 0.161682 0.993161
vt 0.161949 0.993098
vt 0.161862 0.993168
vt 0.161680 0.993155
vt 0.161678 0.993153
vt 0.161686 0.993174
vt 0.161686 0.993175
vt 0.122699 0.006084
vt 0.127603 0.012249
vt 0.125118 0.013756
vt 0.121434 0.007003
vt 0.140056 0.441654
vt 0.137925 0.460503
vt 0.133372 0.460235
vt 0.134216 0.441441
vt 0.116361 0.997373
vt 0.115813 0.997770
vt 0.116270 0.997282
vt 0.116977 0.000086
vt 0.140304 0.045551
vt 0.134221 0.045953
vt 0.116386 0.997345
vt 0.116280 0.997261
vt 0.139487 0.038763
vt 0.133498 0.039748
vt 0.116406 0.997315
vt 0.116291 0.997241
vt 0.137759 0.031917
vt 0.132289 0.033398
vt 0.116423 0.997282
vt 0.116301 0.997220
vt 0.135170 0.025159
vt 0.130514 0.026926
vt 0.116435 0.997247
vt 0.116312 0.997200
vt 0.131776 0.018616
vt 0.128133 0.020401
vt 0.116442 0.997212
vt 0.116323 0.997181
vt 0.116799 0.992180
vt 0.116626 0.992126
vt 0.116176 0.997168
vt 0.116182 0.997156
vt 0.127062 0.034368
vt 0.125950 0.028101
vt 0.116188 0.997145
vt 0.124427 0.021612
vt 0.116194 0.997134
vt 0.122466 0.014815
vt 0.116412 0.992063
vt 0.120023 0.007671
vt 0.127747 0.459946
vt 0.128417 0.441382
vt 0.116165 0.997192
vt 0.128360 0.046313
vt 0.116170 0.997180
vt 0.127845 0.040417
vt 0.122668 0.459739
vt 0.122633 0.441368
vt 0.116081 0.997124
vt 0.118532 0.008079
vt 0.122637 0.046550
vt 0.116083 0.997117
vt 0.122374 0.040813
vt 0.116085 0.997110
vt 0.121986 0.034921
vt 0.116087 0.997103
vt 0.121452 0.028776
vt 0.116090 0.997097
vt 0.120699 0.022315
vt 0.116093 0.997091
vt 0.119739 0.015442
vt 0.116220 0.992009
vt 0.116979 0.035100
vt 0.116987 0.029000
vt 0.115972 0.997069
vt 0.115977 0.997065
vt 0.116968 0.022550
vt 0.115981 0.997061
vt 0.116977 0.015654
vt 0.116006 0.991958
vt 0.116994 0.008221
vt 0.117000 0.459766
vt 0.116854 0.441371
vt 0.115960 0.997081
vt 0.116981 0.046631
vt 0.115964 0.997077
vt 0.116983 0.040944
vt 0.115968 0.997073
vt 0.115453 0.008090
vt 0.111076 0.441357
vt 0.111326 0.046546
vt 0.115813 0.997073
vt 0.115815 0.997066
vt 0.111594 0.040814
vt 0.115817 0.997061
vt 0.111973 0.034918
vt 0.115818 0.997055
vt 0.112522 0.028786
vt 0.115819 0.997050
vt 0.113241 0.022320
vt 0.115830 0.996250
vt 0.114209 0.015447
vt 0.115767 0.995000
vt 0.111177 0.459727
vt 0.108024 0.028119
vt 0.109527 0.021605
vt 0.115688 0.997046
vt 0.115697 0.996283
vt 0.111488 0.014812
vt 0.113276 0.996387
vt 0.113668 0.996101
vt 0.113955 0.007689
vt 0.106061 0.459943
vt 0.105292 0.441381
vt 0.115694 0.997104
vt 0.105604 0.046306
vt 0.115693 0.997089
vt 0.106125 0.040419
vt 0.115692 0.997075
vt 0.106901 0.034362
vt 0.115690 0.997060
vt 0.115561 0.997148
vt 0.115556 0.997125
vt 0.099743 0.045942
vt 0.100475 0.039748
vt 0.115550 0.997103
vt 0.101681 0.033390
vt 0.115545 0.997080
vt 0.103457 0.026949
vt 0.115539 0.997058
vt 0.105837 0.020379
vt 0.115567 0.996303
vt 0.108857 0.013750
vt 0.115383 0.995013
vt 0.115508 0.995005
vt 0.113669 0.996267
vt 0.113693 0.996353
vt 0.112543 0.007023
vt 0.100825 0.460189
vt 0.099495 0.441422
vt 0.115375 0.997065
vt 0.115446 0.996308
vt 0.102193 0.018591
vt 0.106356 0.012244
vt 0.115388 0.996906
vt 0.113322 0.996109
vt 0.111265 0.006104
vt 0.095841 0.460486
vt 0.093659 0.441641
vt 0.115428 0.997211
vt 0.093659 0.045536
vt 0.115409 0.997177
vt 0.094480 0.038766
vt 0.115393 0.997142
vt 0.096206 0.031911
vt 0.115382 0.997104
vt 0.098791 0.025186
vt 0.102747 0.642614
vt 0.098284 0.642684
vt 0.105444 0.797569
vt 0.101847 0.797667
vt 0.109075 0.914562
vt 0.106627 0.914687
vt 0.113629 0.982894
vt 0.112615 0.982980
vt 0.107374 0.642562
vt 0.109173 0.797497
vt 0.111613 0.914468
vt 0.114683 0.982841
vt 0.115639 0.995000
vt 0.111844 0.642531
vt 0.112775 0.797454
vt 0.114065 0.914412
vt 0.115702 0.982827
vt 0.116916 0.642579
vt 0.116862 0.797485
vt 0.116846 0.914422
vt 0.116866 0.982777
vt 0.121849 0.642535
vt 0.120837 0.797455
vt 0.119552 0.914410
vt 0.117999 0.982752
vt 0.126286 0.642568
vt 0.124412 0.797499
vt 0.121985 0.914464
vt 0.119018 0.982781
vt 0.131270 0.642628
vt 0.128429 0.797579
vt 0.124719 0.914565
vt 0.120162 0.982865
vt 0.135349 0.642695
vt 0.131716 0.797669
vt 0.126957 0.914679
vt 0.121098 0.982971
vt 0.113324 0.996202
vt 0.113358 0.996121
vt 0.113331 0.996203
vt 0.113649 0.996329
vt 0.113661 0.996190
vt 0.113652 0.996195
vt 0.113659 0.996264
vt 0.113311 0.996291
vt 0.112608 0.996229
vt 0.112610 0.996247
vt 0.113319 0.996287
vt 0.112613 0.996248
vt 0.112611 0.996229
vt 0.113628 0.996135
vt 0.113329 0.996366
vt 0.112610 0.996212
vt 0.112606 0.996209
vt 0.112614 0.996267
vt 0.112611 0.996265
vt 0.112611 0.996281
vt 0.112613 0.996271
vt 0.029089 0.006081
vt 0.033994 0.012231
vt 0.031512 0.013737
vt 0.027826 0.006998
vt 0.046442 0.441167
vt 0.044319 0.460001
vt 0.039769 0.459734
vt 0.040607 0.440955
vt 0.022836 0.999493
vt 0.022252 0.999914
vt 0.022737 0.999396
vt 0.023384 0.000086
vt 0.046681 0.045492
vt 0.040605 0.045894
vt 0.022865 0.999465
vt 0.022749 0.999374
vt 0.045864 0.038711
vt 0.039882 0.039695
vt 0.022890 0.999433
vt 0.022761 0.999352
vt 0.044137 0.031874
vt 0.038677 0.033352
vt 0.022910 0.999398
vt 0.022773 0.999329
vt 0.041551 0.025130
vt 0.036901 0.026897
vt 0.022926 0.999360
vt 0.022786 0.999308
vt 0.038161 0.018591
vt 0.034522 0.020373
vt 0.022936 0.999320
vt 0.022799 0.999287
vt 0.023288 0.993397
vt 0.023094 0.993342
vt 0.022632 0.999275
vt 0.022637 0.999263
vt 0.033450 0.034320
vt 0.032330 0.028068
vt 0.022644 0.999251
vt 0.030819 0.021580
vt 0.022651 0.999239
vt 0.028867 0.014795
vt 0.022855 0.993280
vt 0.026416 0.007666
vt 0.034147 0.459446
vt 0.034814 0.440896
vt 0.022620 0.999301
vt 0.034749 0.046253
vt 0.022626 0.999288
vt 0.034234 0.040364
vt 0.029071 0.459240
vt 0.029035 0.440882
vt 0.022526 0.999230
vt 0.024920 0.008068
vt 0.029033 0.046490
vt 0.022526 0.999223
vt 0.028770 0.040760
vt 0.022528 0.999216
vt 0.028383 0.034877
vt 0.022529 0.999209
vt 0.027843 0.028747
vt 0.022531 0.999203
vt 0.027102 0.022285
vt 0.022533 0.999197
vt 0.026141 0.015417
vt 0.022639 0.993226
vt 0.023381 0.035051
vt 0.023384 0.028962
vt 0.022398 0.999177
vt 0.022400 0.999174
vt 0.023372 0.022519
vt 0.022402 0.999172
vt 0.023383 0.015633
vt 0.022399 0.993175
vt 0.023383 0.008208
vt 0.023407 0.459267
vt 0.023261 0.440886
vt 0.022393 0.999186
vt 0.023383 0.046571
vt 0.022395 0.999183
vt 0.023385 0.040890
vt 0.022396 0.999180
vt 0.021843 0.008075
vt 0.017488 0.440872
vt 0.017734 0.046487
vt 0.022240 0.999178
vt 0.022240 0.999172
vt 0.018001 0.040760
vt 0.022241 0.999166
vt 0.018380 0.034871
vt 0.022240 0.999161
vt 0.018927 0.028747
vt 0.022239 0.999156
vt 0.019647 0.022286
vt 0.022208 0.998301
vt 0.020622 0.015432
vt 0.022129 0.996591
vt 0.017587 0.459228
vt 0.014434 0.028081
vt 0.015933 0.021578
vt 0.022111 0.999149
vt 0.022096 0.998367
vt 0.017900 0.014801
vt 0.018106 0.998529
vt 0.018689 0.998033
vt 0.020351 0.007667
vt 0.012475 0.459443
vt 0.011709 0.440895
vt 0.022120 0.999211
vt 0.012018 0.046246
vt 0.022118 0.999195
vt 0.012539 0.040366
vt 0.022116 0.999180
vt 0.013313 0.034316
vt 0.022114 0.999164
vt 0.021985 0.999255
vt 0.021980 0.999231
vt 0.006164 0.045883
vt 0.006895 0.039696
vt 0.021975 0.999207
vt 0.008100 0.033345
vt 0.021970 0.999184
vt 0.009874 0.026913
vt 0.021965 0.999160
vt 0.012251 0.020353
vt 0.021994 0.998415
vt 0.015276 0.013735
vt 0.021700 0.996558
vt 0.021839 0.996565
vt 0.018531 0.998149
vt 0.018477 0.998176
vt 0.018952 0.006999
vt 0.007242 0.459688
vt 0.005917 0.440936
vt 0.021806 0.999163
vt 0.021906 0.998442
vt 0.008613 0.018565
vt 0.012775 0.012230
vt 0.018709 0.997448
vt 0.018947 0.997557
vt 0.018202 0.998307
vt 0.017676 0.006082
vt 0.002261 0.459984
vt 0.000086 0.441154
vt 0.021847 0.999320
vt 0.000086 0.045478
vt 0.021830 0.999283
vt 0.000907 0.038715
vt 0.021817 0.999244
vt 0.002632 0.031868
vt 0.021809 0.999204
vt 0.005213 0.025152
vt 0.009154 0.642046
vt 0.004691 0.642116
vt 0.011836 0.797089
vt 0.008234 0.797186
vt 0.015446 0.914373
vt 0.012987 0.914497
vt 0.019973 0.983250
vt 0.018941 0.983336
vt 0.013782 0.641994
vt 0.015570 0.797017
vt 0.017995 0.914279
vt 0.021045 0.983197
vt 0.021985 0.996576
vt 0.018252 0.641964
vt 0.019177 0.796974
vt 0.020458 0.914223
vt 0.022083 0.983183
vt 0.023324 0.642012
vt 0.023269 0.797005
vt 0.023252 0.914234
vt 0.023268 0.983134
vt 0.028258 0.641967
vt 0.027250 0.796975
vt 0.025970 0.914222
vt 0.024421 0.983109
vt 0.032694 0.642000
vt 0.030831 0.797019
vt 0.028415 0.914276
vt 0.025459 0.983138
vt 0.037679 0.642060
vt 0.034853 0.797099
vt 0.031161 0.914376
vt 0.026624 0.983222
vt 0.041759 0.642127
vt 0.038145 0.797189
vt 0.033408 0.914490
vt 0.027576 0.983327
vt 0.018188 0.998360
vt 0.018209 0.998253
vt 0.018191 0.998349
vt 0.018465 0.998220
vt 0.018595 0.998105
vt 0.018577 0.998117
vt 0.018525 0.998158
vt 0.018166 0.998433
vt 0.017550 0.998379
vt 0.017577 0.998404
vt 0.018183 0.998422
vt 0.017579 0.998399
vt 0.017556 0.998376
vt 0.018593 0.998099
vt 0.018211 0.998474
vt 0.017536 0.998354
vt 0.017521 0.998351
vt 0.017599 0.998420
vt 0.017607 0.998430
vt 0.017602 0.998423
s 0
usemtl Pickaxe
f 16/1/1 15/2/1 30/3/1 31/4/1
f 9/5/2 8/6/2 23/7/2 24/8/2
f 2/9/3 1/10/3 17/11/3
f 77/12/4 16/1/4 31/4/4
f 10/13/5 9/5/5 24/8/5 25/14/5
f 3/15/6 2/9/6 17/11/6 18/16/6
f 11/17/7 10/13/7 25/14/7 26/18/7
f 4/19/8 3/15/8 18/16/8 19/20/8
f 12/21/9 11/17/9 26/18/9 27/22/9
f 5/23/10 4/19/10 19/20/10 20/24/10
f 13/25/11 12/21/11 27/22/11 28/26/11
f 6/27/12 5/23/12 20/24/12 21/28/12
f 14/29/13 13/25/13 28/26/13 29/30/13
f 7/31/14 6/27/14 21/28/14 22/32/14
f 15/2/15 14/29/15 29/30/15 30/3/15
f 138/33/16 7/31/16 22/32/16 143/34/16
f 20/24/17 19/20/17 34/35/17 35/36/17
f 28/26/18 27/22/18 42/37/18 43/38/18
f 21/28/19 20/24/19 35/36/19 36/39/19
f 29/30/20 28/26/20 43/38/20 44/40/20
f 22/32/21 21/28/21 36/39/21 37/41/21
f 30/3/22 29/30/22 44/40/22 45/42/22
f 143/34/23 22/32/23 37/41/23 148/43/23
f 31/4/24 30/3/24 45/42/24 46/44/24
f 24/8/25 23/7/25 38/45/25 39/46/25
f 17/11/3 1/10/3 32/47/3
f 77/12/26 31/4/26 46/44/26
f 25/14/27 24/8/27 39/46/27 40/48/27
f 18/16/28 17/11/28 32/47/28 33/49/28
f 26/18/29 25/14/29 40/48/29 41/50/29
f 19/20/30 18/16/30 33/49/30 34/35/30
f 27/22/31 26/18/31 41/50/31 42/37/31
f 39/46/32 38/45/32 53/51/32 54/52/32
f 32/47/33 1/10/33 47/53/33
f 77/12/34 46/44/34 61/54/34
f 40/48/35 39/46/35 54/52/35 55/55/35
f 33/49/36 32/47/36 47/53/36 48/56/36
f 41/50/37 40/48/37 55/55/37 56/57/37
f 34/35/38 33/49/38 48/56/38 49/58/38
f 42/37/39 41/50/39 56/57/39 57/59/39
f 35/36/40 34/35/40 49/58/40 50/60/40
f 43/38/41 42/37/41 57/59/41 58/61/41
f 36/39/42 35/36/42 50/60/42 51/62/42
f 44/40/43 43/38/43 58/61/43 59/63/43
f 37/41/44 36/39/44 51/62/44 52/64/44
f 45/42/45 44/40/45 59/63/45 60/65/45
f 148/43/46 37/41/46 52/64/46 153/66/46
f 46/44/47 45/42/47 60/65/47 61/54/47
f 58/61/48 57/59/48 72/67/48 73/68/48
f 51/62/49 50/60/49 65/69/49 66/70/49
f 59/63/50 58/61/50 73/68/50 74/71/50
f 52/64/51 51/62/51 66/70/51 67/72/51
f 60/65/52 59/63/52 74/71/52 75/73/52
f 153/66/53 52/64/53 67/72/53 158/74/53
f 61/54/54 60/65/54 75/73/54 76/75/54
f 54/52/55 53/51/55 68/76/55 69/77/55
f 47/53/56 1/10/56 62/78/56
f 77/12/57 61/54/57 76/75/57
f 55/55/58 54/52/58 69/77/58 70/79/58
f 48/56/59 47/53/59 62/78/59 63/80/59
f 56/57/60 55/55/60 70/79/60 71/81/60
f 49/58/61 48/56/61 63/80/61 64/82/61
f 57/59/62 56/57/62 71/81/62 72/67/62
f 50/60/63 49/58/63 64/82/63 65/69/63
f 77/12/64 76/75/64 92/83/64
f 70/79/65 69/77/65 85/84/65 86/85/65
f 63/80/66 62/78/66 78/86/66 79/87/66
f 71/81/67 70/79/67 86/85/67 87/88/67
f 64/82/68 63/80/68 79/87/68 80/89/68
f 72/67/69 71/81/69 87/88/69 88/90/69
f 65/69/70 64/82/70 80/89/70 81/91/70
f 73/68/71 72/67/71 88/90/71 89/92/71
f 66/70/72 65/69/72 81/91/72 82/93/72
f 74/71/73 73/68/73 89/92/73 90/94/73
f 67/72/74 66/70/74 82/93/74 83/95/74
f 75/73/75 74/71/75 90/94/75 91/96/75
f 158/74/76 67/72/76 83/95/76 163/97/76
f 76/75/77 75/73/77 91/96/77 92/83/77
f 69/77/78 68/76/78 84/98/78 85/84/78
f 62/78/79 1/10/79 78/86/79
f 90/94/80 89/92/80 104/99/80 105/100/80
f 83/95/81 82/93/81 97/101/81 98/102/81
f 91/96/82 90/94/82 105/100/82 106/103/82
f 163/97/83 83/95/83 184/104/83 187/105/83
f 92/83/84 91/96/84 106/103/84 107/106/84
f 85/84/85 84/98/85 99/107/85 100/108/85
f 78/86/86 1/10/86 93/109/86
f 77/12/87 92/83/87 107/106/87
f 86/85/88 85/84/88 100/108/88 101/110/88
f 79/87/89 78/86/89 93/109/89 94/111/89
f 87/88/90 86/85/90 101/110/90 102/112/90
f 80/89/91 79/87/91 94/111/91 95/113/91
f 88/90/92 87/88/92 102/112/92 103/114/92
f 81/91/93 80/89/93 95/113/93 96/115/93
f 89/92/94 88/90/94 103/114/94 104/99/94
f 82/93/95 81/91/95 96/115/95 97/101/95
f 94/111/96 93/109/96 108/116/96 109/117/96
f 102/112/97 101/110/97 116/118/97 117/119/97
f 95/113/98 94/111/98 109/117/98 110/120/98
f 103/114/99 102/112/99 117/119/99 118/121/99
f 96/115/100 95/113/100 110/120/100 111/122/100
f 104/99/101 103/114/101 118/121/101 119/123/101
f 97/101/102 96/115/102 111/122/102 112/124/102
f 105/100/103 104/99/103 119/123/103 120/125/103
f 98/102/104 97/101/104 112/124/104 113/126/104
f 106/103/105 105/100/105 120/125/105 121/127/105
f 178/128/106 173/129/106 189/130/106 190/131/106
f 107/106/107 106/103/107 121/127/107 122/132/107
f 100/108/108 99/107/108 114/133/108 115/134/108
f 93/109/86 1/10/86 108/116/86
f 77/12/109 107/106/109 122/132/109
f 101/110/110 100/108/110 115/134/110 116/118/110
f 113/126/111 112/124/111 127/135/111 128/136/111
f 121/127/112 120/125/112 135/137/112 136/138/112
f 128/139/113 178/128/113 190/131/113 186/140/113
f 122/132/114 121/127/114 136/138/114 137/141/114
f 115/134/115 114/133/115 129/142/115 130/143/115
f 108/116/86 1/10/86 123/144/86
f 77/12/116 122/132/116 137/141/116
f 116/118/117 115/134/117 130/143/117 131/145/117
f 109/117/118 108/116/118 123/144/118 124/146/118
f 117/119/119 116/118/119 131/145/119 132/147/119
f 110/120/120 109/117/120 124/146/120 125/148/120
f 118/121/121 117/119/121 132/147/121 133/149/121
f 111/122/122 110/120/122 125/148/122 126/150/122
f 119/123/123 118/121/123 133/149/123 134/151/123
f 112/124/124 111/122/124 126/150/124 127/135/124
f 120/125/125 119/123/125 134/151/125 135/137/125
f 114/133/126 177/152/126 182/153/126 129/142/126
f 177/152/126 176/154/126 181/155/126 182/153/126
f 176/154/127 175/156/127 180/157/127 181/155/127
f 175/156/128 174/158/128 179/159/128 180/157/128
f 174/158/129 173/129/129 178/128/129 179/159/129
f 99/107/130 172/160/130 177/152/130 114/133/130
f 172/160/131 171/161/131 176/154/131 177/152/131
f 171/161/132 170/162/132 175/156/132 176/154/132
f 170/162/133 169/163/133 174/158/133 175/156/133
f 169/163/134 168/164/134 173/129/134 174/158/134
f 84/98/135 167/165/135 172/160/135 99/107/135
f 167/165/136 166/166/136 171/161/136 172/160/136
f 166/166/137 165/167/137 170/162/137 171/161/137
f 165/167/138 164/168/138 169/163/138 170/162/138
f 164/168/139 163/97/139 168/164/139 169/163/139
f 68/76/140 162/169/140 167/165/140 84/98/140
f 162/169/141 161/170/141 166/166/141 167/165/141
f 161/170/142 160/171/142 165/167/142 166/166/142
f 160/171/143 159/172/143 164/168/143 165/167/143
f 159/172/144 158/74/144 163/97/144 164/168/144
f 53/51/145 157/173/145 162/169/145 68/76/145
f 157/173/146 156/174/146 161/170/146 162/169/146
f 156/174/147 155/175/147 160/171/147 161/170/147
f 155/175/148 154/176/148 159/172/148 160/171/148
f 154/176/149 153/66/149 158/74/149 159/172/149
f 38/45/150 152/177/150 157/173/150 53/51/150
f 152/177/151 151/178/151 156/174/151 157/173/151
f 151/178/152 150/179/152 155/175/152 156/174/152
f 150/179/153 149/180/153 154/176/153 155/175/153
f 149/180/154 148/43/154 153/66/154 154/176/154
f 23/7/155 147/181/155 152/177/155 38/45/155
f 147/181/156 146/182/156 151/178/156 152/177/156
f 146/182/157 145/183/157 150/179/157 151/178/157
f 145/183/158 144/184/158 149/180/158 150/179/158
f 144/184/159 143/34/159 148/43/159 149/180/159
f 8/6/160 142/185/160 147/181/160 23/7/160
f 142/185/161 141/186/161 146/182/161 147/181/161
f 141/186/162 140/187/162 145/183/162 146/182/162
f 140/187/162 139/188/162 144/184/162 145/183/162
f 139/188/163 138/33/163 143/34/163 144/184/163
f 185/189/164 186/140/164 194/190/164 193/191/164
f 186/140/164 190/131/164 198/192/164 194/190/164
f 189/130/164 188/193/164 196/194/164 197/195/164
f 113/126/165 128/136/165 186/140/165 185/189/165
f 173/129/166 168/164/166 188/193/166 189/130/166
f 168/164/167 163/97/167 187/105/167 188/193/167
f 98/102/168 113/126/168 185/189/168 183/196/168
f 83/95/169 98/102/169 183/196/169 184/104/169
f 197/195/170 196/194/170 204/197/170 205/198/170
f 191/199/171 193/191/171 201/200/171 199/201/171
f 195/202/172 192/203/172 200/204/172 203/205/172
f 184/104/164 183/196/164 191/199/164 192/203/164
f 188/193/164 187/105/164 195/202/164 196/194/164
f 190/131/164 189/130/164 197/195/164 198/192/164
f 187/105/164 184/104/164 192/203/164 195/202/164
f 183/196/164 185/189/164 193/191/164 191/199/164
f 203/205/173 200/204/173 199/201/173 204/197/173
f 204/197/174 199/201/174 201/200/174 205/198/174
f 205/198/175 201/200/175 202/206/175 206/207/175
f 194/190/113 198/192/113 206/207/113 202/206/113
f 193/191/176 194/190/176 202/206/176 201/200/176
f 192/203/177 191/199/177 199/201/177 200/204/177
f 196/194/178 195/202/178 203/205/178 204/197/178
f 198/192/179 197/195/179 205/198/179 206/207/179
f 222/208/180 221/209/180 236/210/180 237/211/180
f 215/212/181 214/213/181 229/214/181 230/215/181
f 208/216/182 207/217/182 223/218/182
f 283/219/183 222/208/183 237/211/183
f 216/220/184 215/212/184 230/215/184 231/221/184
f 209/222/185 208/216/185 223/218/185 224/223/185
f 217/224/186 216/220/186 231/221/186 232/225/186
f 210/226/187 209/222/187 224/223/187 225/227/187
f 218/228/188 217/224/188 232/225/188 233/229/188
f 211/230/189 210/226/189 225/227/189 226/231/189
f 219/232/190 218/228/190 233/229/190 234/233/190
f 212/234/191 211/230/191 226/231/191 227/235/191
f 220/236/192 219/232/192 234/233/192 235/237/192
f 213/238/193 212/234/193 227/235/193 228/239/193
f 221/209/194 220/236/194 235/237/194 236/210/194
f 344/240/195 213/238/195 228/239/195 349/241/195
f 226/231/196 225/227/196 240/242/196 241/243/196
f 234/233/197 233/229/197 248/244/197 249/245/197
f 227/235/198 226/231/198 241/243/198 242/246/198
f 235/237/199 234/233/199 249/245/199 250/247/199
f 228/239/200 227/235/200 242/246/200 243/248/200
f 236/210/201 235/237/201 250/247/201 251/249/201
f 349/241/202 228/239/202 243/248/202 354/250/202
f 237/211/203 236/210/203 251/249/203 252/251/203
f 230/215/204 229/214/204 244/252/204 245/253/204
f 223/218/182 207/217/182 238/254/182
f 283/219/205 237/211/205 252/251/205
f 231/221/206 230/215/206 245/253/206 246/255/206
f 224/223/207 223/218/207 238/254/207 239/256/207
f 232/225/208 231/221/208 246/255/208 247/257/208
f 225/227/209 224/223/209 239/256/209 240/242/209
f 233/229/210 232/225/210 247/257/210 248/244/210
f 245/253/211 244/252/211 259/258/211 260/259/211
f 238/254/212 207/217/212 253/260/212
f 283/219/213 252/251/213 267/261/213
f 246/255/214 245/253/214 260/259/214 261/262/214
f 239/256/215 238/254/215 253/260/215 254/263/215
f 247/257/216 246/255/216 261/262/216 262/264/216
f 240/242/217 239/256/217 254/263/217 255/265/217
f 248/244/218 247/257/218 262/264/218 263/266/218
f 241/243/219 240/242/219 255/265/219 256/267/219
f 249/245/220 248/244/220 263/266/220 264/268/220
f 242/246/221 241/243/221 256/267/221 257/269/221
f 250/247/222 249/245/222 264/268/222 265/270/222
f 243/248/223 242/246/223 257/269/223 258/271/223
f 251/249/224 250/247/224 265/270/224 266/272/224
f 354/250/225 243/248/225 258/271/225 359/273/225
f 252/251/226 251/249/226 266/272/226 267/261/226
f 264/268/227 263/266/227 278/274/227 279/275/227
f 257/269/228 256/267/228 271/276/228 272/277/228
f 265/270/229 264/268/229 279/275/229 280/278/229
f 258/271/230 257/269/230 272/277/230 273/279/230
f 266/272/231 265/270/231 280/278/231 281/280/231
f 359/273/232 258/271/232 273/279/232 364/281/232
f 267/261/233 266/272/233 281/280/233 282/282/233
f 260/259/234 259/258/234 274/283/234 275/284/234
f 253/260/235 207/217/235 268/285/235
f 283/219/236 267/261/236 282/282/236
f 261/262/237 260/259/237 275/284/237 276/286/237
f 254/263/238 253/260/238 268/285/238 269/287/238
f 262/264/239 261/262/239 276/286/239 277/288/239
f 255/265/240 254/263/240 269/287/240 270/289/240
f 263/266/241 262/264/241 277/288/241 278/274/241
f 256/267/242 255/265/242 270/289/242 271/276/242
f 283/219/243 282/282/243 298/290/243
f 276/286/244 275/284/244 291/291/244 292/292/244
f 269/287/245 268/285/245 284/293/245 285/294/245
f 277/288/246 276/286/246 292/292/246 293/295/246
f 270/289/247 269/287/247 285/294/247 286/296/247
f 278/274/248 277/288/248 293/295/248 294/297/248
f 271/276/249 270/289/249 286/296/249 287/298/249
f 279/275/250 278/274/250 294/297/250 295/299/250
f 272/277/251 271/276/251 287/298/251 288/300/251
f 280/278/252 279/275/252 295/299/252 296/301/252
f 273/279/253 272/277/253 288/300/253 289/302/253
f 281/280/254 280/278/254 296/301/254 297/303/254
f 364/281/255 273/279/255 289/302/255 369/304/255
f 282/282/256 281/280/256 297/303/256 298/290/256
f 275/284/257 274/283/257 290/305/257 291/291/257
f 268/285/258 207/217/258 284/293/258
f 296/301/259 295/299/259 310/306/259 311/307/259
f 289/302/260 288/300/260 303/308/260 304/309/260
f 297/303/261 296/301/261 311/307/261 312/310/261
f 369/304/262 289/302/262 390/311/262 393/312/262
f 298/290/263 297/303/263 312/310/263 313/313/263
f 291/291/264 290/305/264 305/314/264 306/315/264
f 284/293/265 207/217/265 299/316/265
f 283/219/266 298/290/266 313/313/266
f 292/292/267 291/291/267 306/315/267 307/317/267
f 285/294/268 284/293/268 299/316/268 300/318/268
f 293/295/269 292/292/269 307/317/269 308/319/269
f 286/296/270 285/294/270 300/318/270 301/320/270
f 294/297/271 293/295/271 308/319/271 309/321/271
f 287/298/272 286/296/272 301/320/272 302/322/272
f 295/299/273 294/297/273 309/321/273 310/306/273
f 288/300/274 287/298/274 302/322/274 303/308/274
f 300/318/275 299/316/275 314/323/275 315/324/275
f 308/319/276 307/317/276 322/325/276 323/326/276
f 301/320/277 300/318/277 315/324/277 316/327/277
f 309/321/278 308/319/278 323/326/278 324/328/278
f 302/322/279 301/320/279 316/327/279 317/329/279
f 310/306/280 309/321/280 324/328/280 325/330/280
f 303/308/281 302/322/281 317/329/281 318/331/281
f 311/307/282 310/306/282 325/330/282 326/332/282
f 304/309/283 303/308/283 318/331/283 319/333/283
f 312/310/284 311/307/284 326/332/284 327/334/284
f 384/335/285 379/336/285 395/337/285 396/338/285
f 313/313/286 312/310/286 327/334/286 328/339/286
f 306/315/287 305/314/287 320/340/287 321/341/287
f 299/316/265 207/217/265 314/323/265
f 283/219/288 313/313/288 328/339/288
f 307/317/289 306/315/289 321/341/289 322/325/289
f 319/333/290 318/331/290 333/342/290 334/343/290
f 327/334/291 326/332/291 341/344/291 342/345/291
f 334/343/292 384/335/292 396/338/292 392/346/292
f 328/339/293 327/334/293 342/345/293 343/347/293
f 321/341/294 320/340/294 335/348/294 336/349/294
f 314/323/265 207/217/265 329/350/265
f 283/219/295 328/339/295 343/347/295
f 322/325/296 321/341/296 336/349/296 337/351/296
f 315/324/297 314/323/297 329/350/297 330/352/297
f 323/326/298 322/325/298 337/351/298 338/353/298
f 316/327/299 315/324/299 330/352/299 331/354/299
f 324/328/300 323/326/300 338/353/300 339/355/300
f 317/329/301 316/327/301 331/354/301 332/356/301
f 325/330/302 324/328/302 339/355/302 340/357/302
f 318/331/303 317/329/303 332/356/303 333/342/303
f 326/332/304 325/330/304 340/357/304 341/344/304
f 320/340/305 383/358/305 388/359/305 335/348/305
f 383/358/305 382/360/305 387/361/305 388/359/305
f 382/360/306 381/362/306 386/363/306 387/361/306
f 381/362/307 380/364/307 385/365/307 386/363/307
f 380/364/308 379/336/308 384/335/308 385/365/308
f 305/314/309 378/366/309 383/358/309 320/340/309
f 378/366/310 377/367/310 382/360/310 383/358/310
f 377/367/311 376/368/311 381/362/311 382/360/311
f 376/368/312 375/369/312 380/364/312 381/362/312
f 375/369/313 374/370/313 379/336/313 380/364/313
f 290/305/314 373/371/314 378/366/314 305/314/314
f 373/371/315 372/372/315 377/367/315 378/366/315
f 372/372/316 371/373/316 376/368/316 377/367/316
f 371/373/317 370/374/317 375/369/317 376/368/317
f 370/374/318 369/304/318 374/370/318 375/369/318
f 274/283/319 368/375/319 373/371/319 290/305/319
f 368/375/320 367/376/320 372/372/320 373/371/320
f 367/376/321 366/377/321 371/373/321 372/372/321
f 366/377/322 365/378/322 370/374/322 371/373/322
f 365/378/323 364/281/323 369/304/323 370/374/323
f 259/258/324 363/379/324 368/375/324 274/283/324
f 363/379/325 362/380/325 367/376/325 368/375/325
f 362/380/326 361/381/326 366/377/326 367/376/326
f 361/381/327 360/382/327 365/378/327 366/377/327
f 360/382/328 359/273/328 364/281/328 365/378/328
f 244/252/329 358/383/329 363/379/329 259/258/329
f 358/383/330 357/384/330 362/380/330 363/379/330
f 357/384/331 356/385/331 361/381/331 362/380/331
f 356/385/332 355/386/332 360/382/332 361/381/332
f 355/386/333 354/250/333 359/273/333 360/382/333
f 229/214/334 353/387/334 358/383/334 244/252/334
f 353/387/335 352/388/335 357/384/335 358/383/335
f 352/388/336 351/389/336 356/385/336 357/384/336
f 351/389/337 350/390/337 355/386/337 356/385/337
f 350/390/338 349/241/338 354/250/338 355/386/338
f 214/213/339 348/391/339 353/387/339 229/214/339
f 348/391/340 347/392/340 352/388/340 353/387/340
f 347/392/341 346/393/341 351/389/341 352/388/341
f 346/393/341 345/394/341 350/390/341 351/389/341
f 345/394/342 344/240/342 349/241/342 350/390/342
f 391/395/164 392/346/164 400/396/164 399/397/164
f 392/346/164 396/338/164 404/398/164 400/396/164
f 395/337/164 394/399/164 402/400/164 403/401/164
f 319/333/343 334/343/343 392/346/343 391/395/343
f 379/336/344 374/370/344 394/399/344 395/337/344
f 374/370/345 369/304/345 393/312/345 394/399/345
f 304/309/346 319/333/346 391/395/346 389/402/346
f 289/302/347 304/309/347 389/402/347 390/311/347
f 403/401/348 402/400/348 410/403/348 411/404/348
f 397/405/349 399/397/349 407/406/349 405/407/349
f 401/408/350 398/409/350 406/410/350 409/411/350
f 390/311/164 389/402/164 397/405/164 398/409/164
f 394/399/164 393/312/164 401/408/164 402/400/164
f 396/338/164 395/337/164 403/401/164 404/398/164
f 393/312/164 390/311/164 398/409/164 401/408/164
f 389/402/164 391/395/164 399/397/164 397/405/164
f 409/411/351 406/410/351 405/407/351 410/403/351
f 410/403/352 405/407/352 407/406/352 411/404/352
f 411/404/353 407/406/353 408/412/353 412/413/353
f 400/396/292 404/398/292 412/413/292 408/412/292
f 399/397/354 400/396/354 408/412/354 407/406/354
f 398/409/355 397/405/355 405/407/355 406/410/355
f 402/400/356 401/408/356 409/411/356 410/403/356
f 404/398/357 403/401/357 411/404/357 412/413/357
f 428/414/358 427/415/358 442/416/358 443/417/358
f 421/418/359 420/419/359 435/420/359 436/421/359
f 414/422/360 413/423/360 429/424/360
f 489/425/361 428/414/361 443/417/361
f 422/426/362 421/418/362 436/421/362 437/427/362
f 415/428/363 414/422/363 429/424/363 430/429/363
f 423/430/364 422/426/364 437/427/364 438/431/364
f 416/432/365 415/428/365 430/429/365 431/433/365
f 424/434/366 423/430/366 438/431/366 439/435/366
f 417/436/367 416/432/367 431/433/367 432/437/367
f 425/438/368 424/434/368 439/435/368 440/439/368
f 418/440/369 417/436/369 432/437/369 433/441/369
f 426/442/370 425/438/370 440/439/370 441/443/370
f 419/444/371 418/440/371 433/441/371 434/445/371
f 427/415/372 426/442/372 441/443/372 442/416/372
f 550/446/373 419/444/373 434/445/373 555/447/373
f 432/437/374 431/433/374 446/448/374 447/449/374
f 440/439/375 439/435/375 454/450/375 455/451/375
f 433/441/376 432/437/376 447/449/376 448/452/376
f 441/443/377 440/439/377 455/451/377 456/453/377
f 434/445/378 433/441/378 448/452/378 449/454/378
f 442/416/379 441/443/379 456/453/379 457/455/379
f 555/447/380 434/445/380 449/454/380 560/456/380
f 443/417/381 442/416/381 457/455/381 458/457/381
f 436/421/382 435/420/382 450/458/382 451/459/382
f 429/424/360 413/423/360 444/460/360
f 489/425/383 443/417/383 458/457/383
f 437/427/384 436/421/384 451/459/384 452/461/384
f 430/429/385 429/424/385 444/460/385 445/462/385
f 438/431/386 437/427/386 452/461/386 453/463/386
f 431/433/387 430/429/387 445/462/387 446/448/387
f 439/435/388 438/431/388 453/463/388 454/450/388
f 451/459/389 450/458/389 465/464/389 466/465/389
f 444/460/390 413/423/390 459/466/390
f 489/425/391 458/457/391 473/467/391
f 452/461/392 451/459/392 466/465/392 467/468/392
f 445/462/393 444/460/393 459/466/393 460/469/393
f 453/463/394 452/461/394 467/468/394 468/470/394
f 446/448/395 445/462/395 460/469/395 461/471/395
f 454/450/396 453/463/396 468/470/396 469/472/396
f 447/449/397 446/448/397 461/471/397 462/473/397
f 455/451/398 454/450/398 469/472/398 470/474/398
f 448/452/399 447/449/399 462/473/399 463/475/399
f 456/453/400 455/451/400 470/474/400 471/476/400
f 449/454/401 448/452/401 463/475/401 464/477/401
f 457/455/402 456/453/402 471/476/402 472/478/402
f 560/456/403 449/454/403 464/477/403 565/479/403
f 458/457/404 457/455/404 472/478/404 473/467/404
f 470/474/405 469/472/405 484/480/405 485/481/405
f 463/475/406 462/473/406 477/482/406 478/483/406
f 471/476/407 470/474/407 485/481/407 486/484/407
f 464/477/408 463/475/408 478/483/408 479/485/408
f 472/478/409 471/476/409 486/484/409 487/486/409
f 565/479/410 464/477/410 479/485/410 570/487/410
f 473/467/411 472/478/411 487/486/411 488/488/411
f 466/465/412 465/464/412 480/489/412 481/490/412
f 459/466/413 413/423/413 474/491/413
f 489/425/414 473/467/414 488/488/414
f 467/468/415 466/465/415 481/490/415 482/492/415
f 460/469/416 459/466/416 474/491/416 475/493/416
f 468/470/417 467/468/417 482/492/417 483/494/417
f 461/471/418 460/469/418 475/493/418 476/495/418
f 469/472/419 468/470/419 483/494/419 484/480/419
f 462/473/420 461/471/420 476/495/420 477/482/420
f 489/425/421 488/488/421 504/496/421
f 482/492/422 481/490/422 497/497/422 498/498/422
f 475/493/423 474/491/423 490/499/423 491/500/423
f 483/494/424 482/492/424 498/498/424 499/501/424
f 476/495/425 475/493/425 491/500/425 492/502/425
f 484/480/426 483/494/426 499/501/426 500/503/426
f 477/482/427 476/495/427 492/502/427 493/504/427
f 485/481/428 484/480/428 500/503/428 501/505/428
f 478/483/429 477/482/429 493/504/429 494/506/429
f 486/484/430 485/481/430 501/505/430 502/507/430
f 479/485/431 478/483/431 494/506/431 495/508/431
f 487/486/432 486/484/432 502/507/432 503/509/432
f 570/487/433 479/485/433 495/508/433 575/510/433
f 488/488/434 487/486/434 503/509/434 504/496/434
f 481/490/435 480/489/435 496/511/435 497/497/435
f 474/491/436 413/423/436 490/499/436
f 502/507/437 501/505/437 516/512/437 517/513/437
f 495/508/438 494/506/438 509/514/438 510/515/438
f 503/509/439 502/507/439 517/513/439 518/516/439
f 575/510/440 495/508/440 596/517/440 599/518/440
f 504/496/441 503/509/441 518/516/441 519/519/441
f 497/497/442 496/511/442 511/520/442 512/521/442
f 490/499/443 413/423/443 505/522/443
f 489/425/444 504/496/444 519/519/444
f 498/498/445 497/497/445 512/521/445 513/523/445
f 491/500/446 490/499/446 505/522/446 506/524/446
f 499/501/447 498/498/447 513/523/447 514/525/447
f 492/502/448 491/500/448 506/524/448 507/526/448
f 500/503/449 499/501/449 514/525/449 515/527/449
f 493/504/450 492/502/450 507/526/450 508/528/450
f 501/505/451 500/503/451 515/527/451 516/512/451
f 494/506/452 493/504/452 508/528/452 509/514/452
f 506/524/453 505/522/453 520/529/453 521/530/453
f 514/525/454 513/523/454 528/531/454 529/532/454
f 507/526/455 506/524/455 521/530/455 522/533/455
f 515/527/456 514/525/456 529/532/456 530/534/456
f 508/528/457 507/526/457 522/533/457 523/535/457
f 516/512/458 515/527/458 530/534/458 531/536/458
f 509/514/459 508/528/459 523/535/459 524/537/459
f 517/513/460 516/512/460 531/536/460 532/538/460
f 510/515/461 509/514/461 524/537/461 525/539/461
f 518/516/462 517/513/462 532/538/462 533/540/462
f 590/541/463 585/542/463 601/543/463 602/544/463
f 519/519/464 518/516/464 533/540/464 534/545/464
f 512/521/465 511/520/465 526/546/465 527/547/465
f 505/522/443 413/423/443 520/529/443
f 489/425/466 519/519/466 534/545/466
f 513/523/467 512/521/467 527/547/467 528/531/467
f 525/539/468 524/537/468 539/548/468 540/549/468
f 533/540/469 532/538/469 547/550/469 548/551/469
f 540/549/113 590/552/113 602/544/113 598/553/113
f 534/545/470 533/540/470 548/551/470 549/554/470
f 527/547/471 526/546/471 541/555/471 542/556/471
f 520/529/443 413/423/443 535/557/443
f 489/425/472 534/545/472 549/554/472
f 528/531/473 527/547/473 542/556/473 543/558/473
f 521/530/474 520/529/474 535/557/474 536/559/474
f 529/532/475 528/531/475 543/558/475 544/560/475
f 522/533/476 521/530/476 536/559/476 537/561/476
f 530/534/477 529/532/477 544/560/477 545/562/477
f 523/535/478 522/533/478 537/561/478 538/563/478
f 531/536/479 530/534/479 545/562/479 546/564/479
f 524/537/480 523/535/480 538/563/480 539/548/480
f 532/538/481 531/536/481 546/564/481 547/550/481
f 526/546/482 589/565/482 594/566/482 541/555/482
f 589/565/482 588/567/482 593/568/482 594/566/482
f 588/567/483 587/569/483 592/570/483 593/568/483
f 587/569/484 586/571/484 591/572/484 592/570/484
f 586/571/485 585/542/485 590/541/485 591/572/485
f 511/520/486 584/573/486 589/565/486 526/546/486
f 584/573/487 583/574/487 588/567/487 589/565/487
f 583/574/488 582/575/488 587/569/488 588/567/488
f 582/575/489 581/576/489 586/571/489 587/569/489
f 581/576/490 580/577/490 585/542/490 586/571/490
f 496/511/491 579/578/491 584/573/491 511/520/491
f 579/578/492 578/579/492 583/574/492 584/573/492
f 578/579/493 577/580/493 582/575/493 583/574/493
f 577/580/494 576/581/494 581/576/494 582/575/494
f 576/581/495 575/510/495 580/577/495 581/576/495
f 480/489/496 574/582/496 579/578/496 496/511/496
f 574/582/497 573/583/497 578/579/497 579/578/497
f 573/583/498 572/584/498 577/580/498 578/579/498
f 572/584/499 571/585/499 576/581/499 577/580/499
f 571/585/500 570/487/500 575/510/500 576/581/500
f 465/464/501 569/586/501 574/582/501 480/489/501
f 569/586/502 568/587/502 573/583/502 574/582/502
f 568/587/503 567/588/503 572/584/503 573/583/503
f 567/588/504 566/589/504 571/585/504 572/584/504
f 566/589/505 565/479/505 570/487/505 571/585/505
f 450/458/506 564/590/506 569/586/506 465/464/506
f 564/590/507 563/591/507 568/587/507 569/586/507
f 563/591/508 562/592/508 567/588/508 568/587/508
f 562/592/509 561/593/509 566/589/509 567/588/509
f 561/593/510 560/456/510 565/479/510 566/589/510
f 435/420/511 559/594/511 564/590/511 450/458/511
f 559/594/512 558/595/512 563/591/512 564/590/512
f 558/595/513 557/596/513 562/592/513 563/591/513
f 557/596/514 556/597/514 561/593/514 562/592/514
f 556/597/515 555/447/515 560/456/515 561/593/515
f 420/419/516 554/598/516 559/594/516 435/420/516
f 554/598/517 553/599/517 558/595/517 559/594/517
f 553/599/518 552/600/518 557/596/518 558/595/518
f 552/600/518 551/601/518 556/597/518 557/596/518
f 551/601/519 550/446/519 555/447/519 556/597/519
f 597/602/164 598/553/164 606/603/164 605/604/164
f 598/553/164 602/544/164 610/605/164 606/603/164
f 601/543/164 600/606/164 608/607/164 609/608/164
f 525/539/520 540/549/520 598/553/520 597/602/520
f 585/542/521 580/577/521 600/606/521 601/543/521
f 580/577/522 575/510/522 599/518/522 600/606/522
f 510/515/523 525/539/523 597/602/523 595/609/523
f 495/508/524 510/515/524 595/609/524 596/517/524
f 609/608/525 608/607/525 616/610/525 617/611/525
f 603/612/526 605/604/526 613/613/526 611/614/526
f 607/615/527 604/616/527 612/617/527 615/618/527
f 596/517/164 595/609/164 603/612/164 604/616/164
f 600/606/164 599/518/164 607/615/164 608/607/164
f 602/544/164 601/543/164 609/608/164 610/605/164
f 599/518/164 596/517/164 604/616/164 607/615/164
f 595/609/164 597/602/164 605/604/164 603/612/164
f 615/618/528 612/617/528 611/614/528 616/610/528
f 616/610/529 611/614/529 613/613/529 617/611/529
f 617/611/530 613/613/530 614/619/530 618/620/530
f 606/603/113 610/605/113 618/621/113 614/622/113
f 605/604/531 606/603/531 614/619/531 613/613/531
f 604/616/532 603/612/532 611/614/532 612/617/532
f 608/607/533 607/615/533 615/618/533 616/610/533
f 610/605/534 609/608/534 617/611/534 618/620/534
f 634/623/535 633/624/535 648/625/535 649/626/535
f 627/627/536 626/628/536 641/629/536 642/630/536
f 620/631/537 619/632/537 635/633/537
f 695/634/538 634/623/538 649/626/538
f 628/635/539 627/627/539 642/630/539 643/636/539
f 621/637/540 620/631/540 635/633/540 636/638/540
f 629/639/541 628/635/541 643/636/541 644/640/541
f 622/641/542 621/637/542 636/638/542 637/642/542
f 630/643/543 629/639/543 644/640/543 645/644/543
f 623/645/544 622/641/544 637/642/544 638/646/544
f 631/647/545 630/643/545 645/644/545 646/648/545
f 624/649/546 623/645/546 638/646/546 639/650/546
f 632/651/547 631/647/547 646/648/547 647/652/547
f 625/653/548 624/649/548 639/650/548 640/654/548
f 633/624/549 632/651/549 647/652/549 648/625/549
f 756/655/550 625/653/550 640/654/550 761/656/550
f 638/646/551 637/642/551 652/657/551 653/658/551
f 646/648/552 645/644/552 660/659/552 661/660/552
f 639/650/553 638/646/553 653/658/553 654/661/553
f 647/652/554 646/648/554 661/660/554 662/662/554
f 640/654/555 639/650/555 654/661/555 655/663/555
f 648/625/556 647/652/556 662/662/556 663/664/556
f 761/656/557 640/654/557 655/663/557 766/665/557
f 649/626/558 648/625/558 663/664/558 664/666/558
f 642/630/559 641/629/559 656/667/559 657/668/559
f 635/633/537 619/632/537 650/669/537
f 695/634/560 649/626/560 664/666/560
f 643/636/561 642/630/561 657/668/561 658/670/561
f 636/638/562 635/633/562 650/669/562 651/671/562
f 644/640/563 643/636/563 658/670/563 659/672/563
f 637/642/564 636/638/564 651/671/564 652/657/564
f 645/644/565 644/640/565 659/672/565 660/659/565
f 657/668/566 656/667/566 671/673/566 672/674/566
f 650/669/537 619/632/537 665/675/537
f 695/634/567 664/666/567 679/676/567
f 658/670/568 657/668/568 672/674/568 673/677/568
f 651/671/569 650/669/569 665/675/569 666/678/569
f 659/672/570 658/670/570 673/677/570 674/679/570
f 652/657/571 651/671/571 666/678/571 667/680/571
f 660/659/572 659/672/572 674/679/572 675/681/572
f 653/658/573 652/657/573 667/680/573 668/682/573
f 661/660/574 660/659/574 675/681/574 676/683/574
f 654/661/575 653/658/575 668/682/575 669/684/575
f 662/662/576 661/660/576 676/683/576 677/685/576
f 655/663/577 654/661/577 669/684/577 670/686/577
f 663/664/578 662/662/578 677/685/578 678/687/578
f 766/665/579 655/663/579 670/686/579 771/688/579
f 664/666/580 663/664/580 678/687/580 679/676/580
f 676/683/581 675/681/581 690/689/581 691/690/581
f 669/684/582 668/682/582 683/691/582 684/692/582
f 677/685/583 676/683/583 691/690/583 692/693/583
f 670/686/584 669/684/584 684/692/584 685/694/584
f 678/687/585 677/685/585 692/693/585 693/695/585
f 771/688/586 670/686/586 685/694/586 776/696/586
f 679/676/587 678/687/587 693/695/587 694/697/587
f 672/674/588 671/673/588 686/698/588 687/699/588
f 665/675/589 619/632/589 680/700/589
f 695/634/590 679/676/590 694/697/590
f 673/677/591 672/674/591 687/699/591 688/701/591
f 666/678/592 665/675/592 680/700/592 681/702/592
f 674/679/593 673/677/593 688/701/593 689/703/593
f 667/680/594 666/678/594 681/702/594 682/704/594
f 675/681/595 674/679/595 689/703/595 690/689/595
f 668/682/596 667/680/596 682/704/596 683/691/596
f 695/634/597 694/697/597 710/705/597
f 688/701/598 687/699/598 703/706/598 704/707/598
f 681/702/599 680/700/599 696/708/599 697/709/599
f 689/703/600 688/701/600 704/707/600 705/710/600
f 682/704/601 681/702/601 697/709/601 698/711/601
f 690/689/602 689/703/602 705/710/602 706/712/602
f 683/691/603 682/704/603 698/711/603 699/713/603
f 691/690/604 690/689/604 706/712/604 707/714/604
f 684/692/605 683/691/605 699/713/605 700/715/605
f 692/693/606 691/690/606 707/714/606 708/716/606
f 685/694/607 684/692/607 700/715/607 701/717/607
f 693/695/608 692/693/608 708/716/608 709/718/608
f 776/696/609 685/694/609 701/717/609 781/719/609
f 694/697/610 693/695/610 709/718/610 710/705/610
f 687/699/611 686/698/611 702/720/611 703/706/611
f 680/700/612 619/632/612 696/708/612
f 708/716/613 707/714/613 722/721/613 723/722/613
f 701/717/614 700/715/614 715/723/614 716/724/614
f 709/718/615 708/716/615 723/722/615 724/725/615
f 781/719/616 701/717/616 802/726/616 805/727/616
f 710/705/617 709/718/617 724/725/617 725/728/617
f 703/706/618 702/720/618 717/729/618 718/730/618
f 696/708/619 619/632/619 711/731/619
f 695/634/620 710/705/620 725/728/620
f 704/707/621 703/706/621 718/730/621 719/732/621
f 697/709/622 696/708/622 711/731/622 712/733/622
f 705/710/623 704/707/623 719/732/623 720/734/623
f 698/711/624 697/709/624 712/733/624 713/735/624
f 706/712/625 705/710/625 720/734/625 721/736/625
f 699/713/626 698/711/626 713/735/626 714/737/626
f 707/714/627 706/712/627 721/736/627 722/721/627
f 700/715/628 699/713/628 714/737/628 715/723/628
f 712/733/629 711/731/629 726/738/629 727/739/629
f 720/734/630 719/732/630 734/740/630 735/741/630
f 713/735/631 712/733/631 727/739/631 728/742/631
f 721/736/632 720/734/632 735/741/632 736/743/632
f 714/737/633 713/735/633 728/742/633 729/744/633
f 722/721/634 721/736/634 736/743/634 737/745/634
f 715/723/635 714/737/635 729/744/635 730/746/635
f 723/722/636 722/721/636 737/745/636 738/747/636
f 716/724/637 715/723/637 730/746/637 731/748/637
f 724/725/638 723/722/638 738/747/638 739/749/638
f 796/750/639 791/751/639 807/752/639 808/753/639
f 725/728/640 724/725/640 739/749/640 740/754/640
f 718/730/641 717/729/641 732/755/641 733/756/641
f 711/731/619 619/632/619 726/738/619
f 695/634/642 725/728/642 740/754/642
f 719/732/643 718/730/643 733/756/643 734/740/643
f 731/748/644 730/746/644 745/757/644 746/758/644
f 739/749/645 738/747/645 753/759/645 754/760/645
f 746/761/292 796/762/292 808/753/292 804/763/292
f 740/754/646 739/749/646 754/760/646 755/764/646
f 733/756/647 732/755/647 747/765/647 748/766/647
f 726/738/619 619/632/619 741/767/619
f 695/634/648 740/754/648 755/764/648
f 734/740/649 733/756/649 748/766/649 749/768/649
f 727/739/650 726/738/650 741/767/650 742/769/650
f 735/741/651 734/740/651 749/768/651 750/770/651
f 728/742/652 727/739/652 742/769/652 743/771/652
f 736/743/653 735/741/653 750/770/653 751/772/653
f 729/744/654 728/742/654 743/771/654 744/773/654
f 737/745/655 736/743/655 751/772/655 752/774/655
f 730/746/656 729/744/656 744/773/656 745/757/656
f 738/747/657 737/745/657 752/774/657 753/759/657
f 732/755/658 795/775/658 800/776/658 747/765/658
f 795/775/658 794/777/658 799/778/658 800/776/658
f 794/777/659 793/779/659 798/780/659 799/778/659
f 793/779/660 792/781/660 797/782/660 798/780/660
f 792/781/661 791/751/661 796/750/661 797/782/661
f 717/729/662 790/783/662 795/775/662 732/755/662
f 790/783/663 789/784/663 794/777/663 795/775/663
f 789/784/664 788/785/664 793/779/664 794/777/664
f 788/785/665 787/786/665 792/781/665 793/779/665
f 787/786/666 786/787/666 791/751/666 792/781/666
f 702/720/667 785/788/667 790/783/667 717/729/667
f 785/788/668 784/789/668 789/784/668 790/783/668
f 784/789/669 783/790/669 788/785/669 789/784/669
f 783/790/670 782/791/670 787/786/670 788/785/670
f 782/791/671 781/719/671 786/787/671 787/786/671
f 686/698/672 780/792/672 785/788/672 702/720/672
f 780/792/673 779/793/673 784/789/673 785/788/673
f 779/793/674 778/794/674 783/790/674 784/789/674
f 778/794/675 777/795/675 782/791/675 783/790/675
f 777/795/676 776/696/676 781/719/676 782/791/676
f 671/673/677 775/796/677 780/792/677 686/698/677
f 775/796/678 774/797/678 779/793/678 780/792/678
f 774/797/679 773/798/679 778/794/679 779/793/679
f 773/798/680 772/799/680 777/795/680 778/794/680
f 772/799/681 771/688/681 776/696/681 777/795/681
f 656/667/682 770/800/682 775/796/682 671/673/682
f 770/800/683 769/801/683 774/797/683 775/796/683
f 769/801/684 768/802/684 773/798/684 774/797/684
f 768/802/685 767/803/685 772/799/685 773/798/685
f 767/803/686 766/665/686 771/688/686 772/799/686
f 641/629/687 765/804/687 770/800/687 656/667/687
f 765/804/688 764/805/688 769/801/688 770/800/688
f 764/805/689 763/806/689 768/802/689 769/801/689
f 763/806/690 762/807/690 767/803/690 768/802/690
f 762/807/691 761/656/691 766/665/691 767/803/691
f 626/628/692 760/808/692 765/804/692 641/629/692
f 760/808/693 759/809/693 764/805/693 765/804/693
f 759/809/694 758/810/694 763/806/694 764/805/694
f 758/810/694 757/811/694 762/807/694 763/806/694
f 757/811/695 756/655/695 761/656/695 762/807/695
f 803/812/164 804/763/164 812/813/164 811/814/164
f 804/763/164 808/753/164 816/815/164 812/813/164
f 807/752/164 806/816/164 814/817/164 815/818/164
f 731/748/696 746/758/696 804/763/696 803/812/696
f 791/751/697 786/787/697 806/816/697 807/752/697
f 786/787/698 781/719/698 805/727/698 806/816/698
f 716/724/699 731/748/699 803/812/699 801/819/699
f 701/717/700 716/724/700 801/819/700 802/726/700
f 815/818/701 814/817/701 822/820/701 823/821/701
f 809/822/702 811/814/702 819/823/702 817/824/702
f 813/825/703 810/826/703 818/827/703 821/828/703
f 802/726/164 801/819/164 809/822/164 810/826/164
f 806/816/164 805/727/164 813/825/164 814/817/164
f 808/753/164 807/752/164 815/818/164 816/815/164
f 805/727/164 802/726/164 810/826/164 813/825/164
f 801/819/164 803/812/164 811/814/164 809/822/164
f 821/828/704 818/827/704 817/824/704 822/820/704
f 822/820/705 817/824/705 819/823/705 823/821/705
f 823/821/706 819/823/706 820/829/706 824/830/706
f 812/813/292 816/815/292 824/830/292 820/831/292
f 811/814/707 812/813/707 820/829/707 819/823/707
f 810/826/708 809/822/708 817/824/708 818/827/708
f 814/817/709 813/825/709 821/828/709 822/820/709
f 816/815/710 815/818/710 823/821/710 824/830/710
